<svg viewBox="0 0 40 40" fill="none" xmlns="http://www.w3.org/2000/svg">
<g>
<path d="M39.1316 18.2067C39.9189 17.4393 40.1969 16.3132 39.8573 15.2663C39.5169 14.2195 38.6302 13.4722 37.5409 13.3136L27.8557 11.9063C27.4432 11.8462 27.0867 11.5875 26.9025 11.2135L22.5725 2.43734C22.0863 1.45136 21.0996 0.838623 19.9998 0.838623C18.9009 0.838623 17.9141 1.45136 17.4279 2.43734L13.0971 11.2135C12.9129 11.5875 12.5557 11.8462 12.1432 11.9063L2.45798 13.3144C1.36948 13.4722 0.482813 14.2195 0.142405 15.2663C-0.197203 16.3132 0.0807308 17.4393 0.868076 18.2067L7.87568 25.0373C8.17444 25.3288 8.31141 25.7485 8.24092 26.1586L6.58694 35.8046C6.40111 36.8883 6.83764 37.9624 7.72751 38.6096C8.61657 39.2575 9.77396 39.3416 10.7487 38.8282L19.4103 34.2739C19.7796 34.0801 20.2201 34.0801 20.5893 34.2739L29.2517 38.8282C29.6746 39.0509 30.1328 39.1606 30.5885 39.1606C31.1805 39.1606 31.77 38.9756 32.273 38.6096C33.1628 37.9624 33.5994 36.8883 33.4135 35.8046L31.7587 26.1594C31.6883 25.7485 31.8252 25.3296 32.124 25.0381L39.1316 18.2067ZM30.1809 26.4301L31.8348 36.0753C31.9181 36.5607 31.7299 37.0245 31.331 37.3144C30.9314 37.6035 30.434 37.6388 29.9974 37.4113L21.335 32.8562C20.9177 32.6376 20.458 32.5271 19.9998 32.5271C19.5417 32.5271 19.0827 32.6376 18.6646 32.857L10.0038 37.4113C9.56571 37.6388 9.06832 37.6035 8.66944 37.3144C8.27056 37.0245 8.08313 36.5615 8.16563 36.0753L9.81962 26.4301C9.97901 25.4994 9.67064 24.5495 8.99463 23.8911L1.98622 17.0597C1.63299 16.7153 1.51285 16.2299 1.66583 15.7613C1.81802 15.292 2.20007 14.97 2.68786 14.8987L12.3723 13.4914C13.307 13.356 14.1152 12.7697 14.5325 11.9223L18.8633 3.14619C19.0811 2.70406 19.5064 2.44055 19.999 2.44055C20.4924 2.44055 20.9169 2.70406 21.1356 3.14619L25.4664 11.9223C25.8837 12.7697 26.6911 13.356 27.6258 13.4914L37.311 14.8987C37.7988 14.97 38.1809 15.292 38.333 15.7613C38.4852 16.2299 38.3659 16.7153 38.0126 17.0597L31.005 23.8903C30.329 24.5495 30.0207 25.4986 30.1809 26.4301Z" fill="black"/>
<path d="M3.05181 27.3154L-0.989637 29.6487C-1.54764 29.9709 -2.22386 29.8443 -2.5 29.366C-2.77614 28.8877 -2.54765 28.2388 -1.98964 27.9167L2.05181 25.5833C2.60982 25.2612 3.28603 25.3877 3.56218 25.866C3.83832 26.3443 3.60982 26.9932 3.05181 27.3154Z" fill="black"/>
<path d="M32.272 7.6987L35.3575 4.19762C35.7835 3.71422 35.793 3.02633 35.3786 2.66117C34.9643 2.29602 34.2831 2.39187 33.857 2.87527L30.7716 6.37635C30.3455 6.85975 30.3361 7.54764 30.7504 7.9128C31.1648 8.27796 31.846 8.1821 32.272 7.6987Z" fill="black"/>
<path d="M36.5434 28.9863L40.5849 31.3196C41.1429 31.6418 41.8191 31.5152 42.0952 31.0369C42.3714 30.5586 42.1429 29.9097 41.5849 29.5876L37.5434 27.2542C36.9854 26.9321 36.3092 27.0586 36.033 27.5369C35.7569 28.0152 35.9854 28.6641 36.5434 28.9863Z" fill="black"/>
<path d="M7.85688 7.6987L4.77139 4.19762C4.34538 3.71422 4.33591 3.02633 4.75026 2.66117C5.1646 2.29602 5.84584 2.39187 6.27186 2.87527L9.35734 6.37635C9.78336 6.85975 9.79282 7.54764 9.37848 7.9128C8.96414 8.27796 8.28289 8.1821 7.85688 7.6987Z" fill="black"/>
</g>
</svg>
