<svg width="76" height="76" viewBox="0 0 76 76" fill="none" xmlns="http://www.w3.org/2000/svg">
<rect width="76" height="76"/>
<g clip-path="url(#clip0_28897_2115)">
<path d="M61.2681 49.1996C59.3791 49.0726 57.483 49.0994 55.5984 49.2796V48.2534C56.146 48.074 56.6082 47.699 56.8966 47.2C57.3064 46.4911 57.299 45.6157 56.8774 44.9139C56.5362 44.345 56.1623 43.7964 55.7575 43.2709C55.5197 42.9868 55.1682 42.8227 54.7976 42.8227C54.4271 42.8227 54.0756 42.9868 53.8377 43.2709C53.4333 43.796 53.0593 44.3441 52.7178 44.9123C52.2963 45.6145 52.289 46.4901 52.6986 47.1993C52.9872 47.6988 53.4501 48.0742 53.9985 48.2535V49.4534C50.1836 49.8828 46.501 51.1065 43.1878 53.0458C40.4643 52.5384 37.8131 51.7005 35.2927 50.5509C36.9937 49.8932 38.6255 49.0688 40.1641 48.0896L40.2441 48.04C40.3353 47.9848 40.4281 47.928 40.4992 47.88C51.8035 40.4952 60.7257 41.2008 61.1017 41.2375C61.5417 41.2773 61.9306 40.9528 61.9704 40.5128C62.0101 40.0728 61.6857 39.6839 61.2457 39.6441C60.9761 39.6193 56.5206 39.2666 49.9989 41.4543V39.5081C51.0637 39.2744 51.9831 38.6078 52.5363 37.6683C53.314 36.3652 53.3568 34.7511 52.649 33.4088C51.9993 32.1978 51.2823 31.0241 50.5013 29.8932C50.2104 29.4586 49.7219 29.1978 49.1991 29.1978C48.6762 29.1978 48.1877 29.4586 47.8968 29.8932C47.1158 31.0241 46.3988 32.1978 45.7491 33.4088C45.0414 34.7511 45.0841 36.3652 45.8618 37.6683C46.415 38.6078 47.3343 39.2743 48.3992 39.5081V42.0294C47.3281 42.439 46.2122 42.9141 45.0563 43.4693C43.8603 41.5011 41.6972 40.3295 39.3953 40.4031C37.0935 40.4766 35.0096 41.7839 33.9416 43.8245C32.1515 42.8658 30.3009 42.0246 28.4014 41.3063V39.1394C29.1673 38.9154 29.8202 38.4103 30.2292 37.7251C30.9223 36.5929 30.9871 35.1847 30.4013 33.9935C29.9068 33.002 29.3596 32.0375 28.7622 31.1043C28.5159 30.6972 28.0747 30.4484 27.5987 30.4484C27.1228 30.4484 26.6816 30.6972 26.4352 31.1043C25.8394 32.0374 25.2942 33.0019 24.8018 33.9935C24.2169 35.1853 24.283 36.5935 24.977 37.7251C25.3854 38.4096 26.0369 38.9147 26.8017 39.1394V40.7392C24.9721 40.1244 23.1008 39.6411 21.2023 39.293V38.4011C21.6904 38.2135 22.1039 37.872 22.3807 37.4283C22.8915 36.5957 22.9404 35.5594 22.5102 34.6823C22.1762 34.0117 21.8064 33.3597 21.4023 32.7289C21.1756 32.4 20.8018 32.2036 20.4024 32.2036C20.003 32.2036 19.6291 32.4 19.4025 32.7289C18.9985 33.3592 18.6287 34.0108 18.2946 34.6807C17.8644 35.5581 17.9133 36.5945 18.4241 37.4275C18.7006 37.8714 19.1142 38.2131 19.6024 38.401V39.0409C18.0139 38.8086 16.4067 38.7282 14.803 38.801C14.5172 38.8219 14.2642 38.9936 14.1394 39.2515C14.0145 39.5094 14.0368 39.8143 14.1978 40.0514C14.3587 40.2884 14.634 40.4216 14.9198 40.4007C15.8149 40.3359 23.9763 39.936 34.4055 45.8961C35.5277 46.5357 36.6928 47.097 37.8923 47.5759C36.5621 48.306 35.1702 48.918 33.7328 49.4045C32.9178 48.0222 32.0754 46.792 31.4715 45.9536C31.1332 45.4812 30.5879 45.201 30.0068 45.201C29.4258 45.201 28.8804 45.4813 28.5421 45.9536C28.3318 46.2464 28.0894 46.5936 27.8318 46.9695C23.6252 45.5196 19.1729 44.9182 14.7325 45.2001C14.4467 45.2252 14.196 45.401 14.0749 45.661C13.9538 45.921 13.9806 46.226 14.1453 46.4609C14.31 46.6958 14.5875 46.825 14.8733 46.7998C18.951 46.5586 23.0379 47.0823 26.9231 48.3436C26.5583 48.9212 26.1848 49.5435 25.8264 50.1834C24.9704 51.7029 24.9923 53.5641 25.884 55.0629C26.6003 56.2966 27.8344 57.1419 29.2436 57.3642V59.7183C27.1996 60.1464 25.1175 60.3664 23.0291 60.3751L14.8029 60.3982C14.3611 60.3982 14.003 60.7563 14.003 61.1981C14.003 61.6399 14.3611 61.998 14.8029 61.998L23.0315 61.9748C25.3773 61.9659 27.7152 61.7028 30.0043 61.1901C30.0171 61.1901 30.0283 61.1981 30.0419 61.1981C30.1656 61.1959 30.2871 61.1643 30.3962 61.1061C32.9646 60.5086 35.4437 59.5768 37.7697 58.3344C39.5779 57.3518 41.3257 56.2617 43.0036 55.07C43.2507 54.89 43.5059 54.7252 43.7739 54.5597C50.9267 49.9626 61.0239 50.7873 61.1247 50.8001C61.5667 50.8396 61.9572 50.5133 61.9966 50.0713C62.0361 49.6294 61.7101 49.2392 61.2681 49.1996ZM47.232 36.8483C46.7351 36.0283 46.709 35.0066 47.1632 34.1622C47.8743 32.8192 48.6719 31.5945 49.183 30.8026C49.9287 31.8835 50.6138 33.0051 51.2348 34.1622C51.6891 35.0066 51.6629 36.0283 51.166 36.8483C50.7674 37.5604 50.0151 38.0015 49.1991 38.0015C48.383 38.0015 47.6306 37.5604 47.232 36.8483ZM21.0223 36.582C20.897 36.81 20.6622 36.9567 20.4024 36.9691C20.1424 36.9566 19.9077 36.81 19.7825 36.582C19.5617 36.2188 19.5419 35.7681 19.7297 35.3869C19.9513 34.9389 20.1888 34.5142 20.4025 34.1551C20.616 34.5142 20.8536 34.939 21.0752 35.3877C21.2629 35.7686 21.243 36.2191 21.0223 36.582ZM26.332 36.8811C25.928 36.2194 25.8909 35.3968 26.2336 34.7014C26.6968 33.7614 27.2063 32.8936 27.6015 32.2593C27.9967 32.8936 28.5061 33.7615 28.9693 34.7014C29.3121 35.3968 29.275 36.2194 28.8709 36.8811C28.6238 37.3535 28.1346 37.6497 27.6015 37.6497C27.0683 37.6498 26.5792 37.3535 26.332 36.8811ZM35.3479 44.5866C36.1734 43.0003 37.8118 42.0038 39.6002 42.0006C41.2271 41.999 42.7435 42.8239 43.6261 44.1907C42.3382 44.8666 41.0104 45.6377 39.6498 46.5248C38.1605 46.009 36.7208 45.3604 35.3479 44.5866ZM30.0013 55.8284C28.8725 55.8284 27.8291 55.2271 27.2632 54.2503V54.2528C26.6611 53.2421 26.6464 51.9863 27.2247 50.9619C28.0173 49.5559 28.8888 48.1957 29.8348 46.888C29.8724 46.8331 29.9346 46.8003 30.0012 46.8003C30.0677 46.8003 30.13 46.8331 30.1676 46.888C31.1136 48.195 31.985 49.5544 32.7776 50.9596C33.356 51.9841 33.3413 53.2397 32.7392 54.2504C32.1734 55.2271 31.1301 55.8284 30.0013 55.8284ZM37.014 56.926C35.0586 57.9691 32.988 58.7802 30.8443 59.3425V57.3483C32.2189 57.1064 33.4168 56.2704 34.1183 55.0638C34.6526 54.1615 34.8821 53.111 34.7726 52.0682C36.879 53.0097 39.0681 53.7541 41.3118 54.2919C39.9255 55.2432 38.4909 56.1224 37.014 56.926ZM54.7984 46.7761C54.5163 46.7761 54.2519 46.6388 54.0896 46.408C53.9649 46.1976 53.9677 45.9351 54.0968 45.7273C54.3272 45.3377 54.5768 44.9682 54.7984 44.661C55.0191 44.9682 55.2695 45.3377 55.4999 45.728C55.629 45.9356 55.6317 46.1976 55.5071 46.4079C55.3449 46.6388 55.0804 46.7761 54.7984 46.7761Z" fill="black"/>
<path d="M26.4017 26.8021H28.4423C28.6385 28.1761 29.8132 29.1979 31.2011 29.2018H38.4003C39.8841 29.2016 41.11 28.0438 41.1949 26.5624C41.2799 25.0811 40.1944 23.7907 38.7203 23.6209C38.3455 21.7525 36.7064 20.4068 34.8008 20.4028C34.4339 20.4071 34.0693 20.4626 33.7177 20.5676C33.0829 18.9059 31.4244 17.8654 29.652 18.0171C27.8796 18.1687 26.4219 19.4757 26.0786 21.2212C24.6038 21.391 23.5182 22.6824 23.6039 24.1643C23.6897 25.6462 24.9172 26.8036 26.4017 26.8021ZM34.8007 22.0027C36.126 22.0027 37.2004 23.0771 37.2004 24.4024C37.2004 24.8442 37.5585 25.2023 38.0003 25.2023H38.4003C39.0629 25.2023 39.6001 25.7395 39.6001 26.4021C39.6018 26.7208 39.476 27.0271 39.2506 27.2524C39.0252 27.4778 38.719 27.6037 38.4003 27.602H31.2011C30.5385 27.602 30.0013 27.0648 30.0013 26.4021C30.0013 25.7395 30.5385 25.2023 31.2011 25.2023H31.6011C32.0429 25.2023 32.401 24.8442 32.401 24.4024C32.401 23.0771 33.4753 22.0027 34.8007 22.0027ZM25.5514 23.1521C25.7767 22.9267 26.083 22.8009 26.4017 22.8025H26.8017C27.2434 22.8025 27.6015 22.4444 27.6015 22.0027C27.603 20.817 28.4704 19.81 29.6428 19.6329C30.8152 19.4559 31.9413 20.1616 32.293 21.294C31.5648 21.8807 31.0653 22.7041 30.8812 23.6209C29.9198 23.7229 29.0834 24.3237 28.6798 25.2023H26.4017C25.739 25.2023 25.2018 24.665 25.2018 24.0024C25.2 23.6837 25.3259 23.3775 25.5514 23.1521Z" fill="black"/>
<path d="M47.1993 22.8025H54.3984C55.8822 22.8022 57.1081 21.6444 57.1931 20.1631C57.278 18.6817 56.1925 17.3914 54.7185 17.2215C54.3463 15.3499 52.7039 14.002 50.7958 14.002C48.8876 14.002 47.2451 15.3499 46.8731 17.2215C45.3978 17.3915 44.3118 18.6838 44.3985 20.1662C44.4851 21.6488 45.7142 22.8057 47.1993 22.8025ZM46.349 19.1525C46.5743 18.9271 46.8805 18.8012 47.1993 18.803H47.5993C48.041 18.803 48.3991 18.4449 48.3991 18.0031C48.3991 16.6778 49.4736 15.6034 50.7988 15.6034C52.1241 15.6034 53.1986 16.6778 53.1986 18.0031C53.1986 18.4449 53.5567 18.803 53.9984 18.803H54.3984C54.8271 18.803 55.2232 19.0317 55.4375 19.4029C55.6518 19.7741 55.6518 20.2316 55.4375 20.6028C55.2232 20.974 54.8271 21.2027 54.3984 21.2027H47.1993C46.7128 21.2042 46.2736 20.9118 46.0872 20.4626C45.9009 20.0132 46.0043 19.4957 46.349 19.1525Z" fill="black"/>
</g>
<defs>
<clipPath id="clip0_28897_2115">
<rect width="48" height="48" fill="black" transform="translate(14 14)"/>
</clipPath>
</defs>
</svg>
