<svg viewBox="0 0 48 49" fill="none" xmlns="http://www.w3.org/2000/svg">
<path d="M47.2683 35.2914C45.3793 35.1644 43.4832 35.1912 41.5985 35.3714V34.3452C42.1462 34.1658 42.6084 33.7908 42.8968 33.2918C43.3066 32.5829 43.2991 31.7075 42.8776 31.0057C42.5364 30.4368 42.1625 29.8882 41.7577 29.3627C41.5199 29.0786 41.1684 28.9145 40.7978 28.9145C40.4273 28.9145 40.0757 29.0786 39.8379 29.3627C39.4334 29.8878 39.0595 30.4359 38.718 31.0041C38.2965 31.7063 38.2892 32.5819 38.6988 33.2911C38.9874 33.7906 39.4503 34.166 39.9987 34.3453V35.5452C36.1838 35.9746 32.5011 37.1983 29.1879 39.1376C26.4645 38.6302 23.8133 37.7923 21.2928 36.6427C22.9939 35.985 24.6256 35.1606 26.1643 34.1814L26.2442 34.1318C26.3354 34.0766 26.4283 34.0198 26.4994 33.9718C37.8037 26.587 46.7259 27.2926 47.1019 27.3293C47.5419 27.3691 47.9308 27.0446 47.9705 26.6046C48.0103 26.1646 47.6859 25.7757 47.2458 25.7359C46.9763 25.7111 42.5208 25.3584 35.9991 27.5461V25.5999C37.0639 25.3662 37.9833 24.6996 38.5364 23.7601C39.3142 22.457 39.3569 20.8429 38.6492 19.5006C37.9995 18.2896 37.2825 17.1159 36.5015 15.985C36.2106 15.5504 35.7221 15.2896 35.1992 15.2896C34.6764 15.2896 34.1879 15.5504 33.897 15.985C33.116 17.1159 32.399 18.2896 31.7493 19.5006C31.0416 20.8429 31.0843 22.457 31.862 23.7601C32.4152 24.6996 33.3345 25.3661 34.3994 25.5999V28.1212C33.3283 28.5308 32.2124 29.0059 31.0565 29.5611C29.8605 27.5929 27.6974 26.4213 25.3955 26.4949C23.0937 26.5684 21.0098 27.8757 19.9418 29.9162C18.1516 28.9576 16.301 28.1164 14.4016 27.3981V25.2312C15.1675 25.0072 15.8204 24.5021 16.2294 23.8169C16.9224 22.6847 16.9873 21.2765 16.4014 20.0853C15.907 19.0938 15.3598 18.1293 14.7624 17.1961C14.5161 16.789 14.0748 16.5402 13.5989 16.5402C13.123 16.5402 12.6818 16.789 12.4354 17.1961C11.8396 18.1292 11.2943 19.0937 10.802 20.0853C10.2171 21.2771 10.2832 22.6853 10.9772 23.8169C11.3856 24.5014 12.0371 25.0065 12.8019 25.2312V26.831C10.9723 26.2162 9.10103 25.7329 7.20253 25.3848V24.4929C7.69054 24.3053 8.10412 23.9638 8.38083 23.5201C8.89171 22.6875 8.94055 21.6512 8.51038 20.774C8.17639 20.1035 7.80659 19.4515 7.40248 18.8207C7.17582 18.4918 6.80199 18.2954 6.40256 18.2954C6.00314 18.2954 5.62931 18.4918 5.40265 18.8207C4.99872 19.451 4.62892 20.1026 4.29474 20.7725C3.86457 21.6499 3.91351 22.6863 4.42429 23.5193C4.70082 23.9632 5.1144 24.3049 5.60259 24.4928V25.1327C4.01409 24.9004 2.40693 24.82 0.803146 24.8928C0.517335 24.9137 0.264427 25.0854 0.139566 25.3433C0.0147053 25.6012 0.0370152 25.9061 0.197965 26.1432C0.358916 26.3802 0.634134 26.5134 0.919945 26.4925C1.81506 26.4277 9.97646 26.0278 20.4057 31.9879C21.5278 32.6275 22.6929 33.1888 23.8925 33.6677C22.5623 34.3978 21.1704 35.0098 19.733 35.4963C18.918 34.114 18.0756 32.8838 17.4717 32.0454C17.1334 31.573 16.5881 31.2928 16.007 31.2928C15.426 31.2928 14.8806 31.5731 14.5423 32.0454C14.332 32.3382 14.0896 32.6854 13.832 33.0613C9.62541 31.6114 5.17308 31.01 0.732654 31.2919C0.446843 31.317 0.196184 31.4928 0.0750734 31.7528C-0.0460377 32.0128 -0.0192283 32.3178 0.145471 32.5527C0.310171 32.7876 0.587639 32.9168 0.87345 32.8916C4.9512 32.6504 9.03804 33.1741 12.9232 34.4354C12.5585 35.0129 12.185 35.6353 11.8266 36.2752C10.9706 37.7947 10.9925 39.6559 11.8841 41.1546C12.6005 42.3884 13.8346 43.2337 15.2438 43.4559V45.8101C13.1998 46.2382 11.1176 46.4582 9.02932 46.4669L0.803052 46.49C0.361259 46.49 0.00317539 46.8481 0.00317539 47.2899C0.00317539 47.7317 0.361259 48.0898 0.803052 48.0898L9.03167 48.0666C11.3775 48.0577 13.7153 47.7946 16.0045 47.2819C16.0173 47.2819 16.0285 47.2899 16.042 47.2899C16.1658 47.2877 16.2873 47.2561 16.3964 47.1979C18.9648 46.6004 21.4439 45.6686 23.7699 44.4262C25.5781 43.4436 27.3259 42.3535 29.0037 41.1618C29.2509 40.9818 29.5061 40.817 29.7741 40.6515C36.9269 36.0544 47.0241 36.8791 47.1249 36.8919C47.5669 36.9314 47.9573 36.6051 47.9968 36.1631C48.0363 35.7211 47.7102 35.331 47.2683 35.2914ZM33.2322 22.9401C32.7353 22.12 32.7092 21.0984 33.1634 20.254C33.8745 18.911 34.6721 17.6863 35.1832 16.8944C35.9289 17.9753 36.614 19.0969 37.235 20.254C37.6892 21.0984 37.6631 22.12 37.1662 22.9401C36.7676 23.6522 36.0152 24.0933 35.1992 24.0933C34.3831 24.0933 33.6308 23.6522 33.2322 22.9401ZM7.02246 22.6738C6.89722 22.9018 6.66241 23.0485 6.40256 23.0609C6.14262 23.0484 5.9079 22.9018 5.78266 22.6738C5.56191 22.3106 5.54204 21.8599 5.72989 21.4787C5.95149 21.0307 6.18902 20.606 6.40266 20.2469C6.61619 20.606 6.85382 21.0308 7.07542 21.4795C7.26309 21.8604 7.24322 22.3109 7.02246 22.6738ZM12.3322 22.9729C11.9282 22.3112 11.8911 21.4886 12.2338 20.7932C12.697 19.8532 13.2065 18.9854 13.6016 18.3511C13.9968 18.9854 14.5063 19.8533 14.9695 20.7932C15.3123 21.4886 15.2752 22.3112 14.8711 22.9729C14.624 23.4453 14.1348 23.7415 13.6016 23.7415C13.0684 23.7416 12.5794 23.4453 12.3322 22.9729ZM21.3481 30.6784C22.1736 29.0921 23.812 28.0956 25.6003 28.0924C27.2273 28.0908 28.7437 28.9157 29.6263 30.2825C28.3384 30.9584 27.0106 31.7295 25.6499 32.6166C24.1607 32.1008 22.721 31.4522 21.3481 30.6784ZM16.0015 41.9202C14.8726 41.9202 13.8292 41.3189 13.2633 40.3421V40.3446C12.6612 39.3339 12.6466 38.0781 13.2249 37.0537C14.0175 35.6477 14.889 34.2875 15.835 32.9798C15.8726 32.9249 15.9348 32.8921 16.0014 32.8921C16.0679 32.8921 16.1302 32.9249 16.1677 32.9798C17.1138 34.2867 17.9852 35.6462 18.7778 37.0514C19.3562 38.0759 19.3415 39.3315 18.7394 40.3422C18.1736 41.3189 17.1303 41.9202 16.0015 41.9202ZM23.0142 43.0178C21.0588 44.0609 18.9882 44.872 16.8445 45.4343V43.4401C18.219 43.1982 19.417 42.3622 20.1185 41.1556C20.6528 40.2533 20.8823 39.2028 20.7728 38.16C22.8792 39.1015 25.0683 39.8459 27.312 40.3837C25.9257 41.335 24.4911 42.2142 23.0142 43.0178ZM40.7986 32.8679C40.5165 32.8679 40.2521 32.7306 40.0898 32.4998C39.965 32.2894 39.9678 32.0269 40.097 31.8191C40.3274 31.4295 40.577 31.06 40.7986 30.7528C41.0193 31.06 41.2697 31.4295 41.5001 31.8198C41.6292 32.0274 41.6319 32.2894 41.5073 32.4997C41.3451 32.7306 41.0806 32.8679 40.7986 32.8679Z" fill="black"/>
<path d="M12.4016 12.8939H14.4422C14.6384 14.2678 15.8132 15.2897 17.2011 15.2936H24.4002C25.884 15.2934 27.1099 14.1356 27.1949 12.6542C27.2798 11.1729 26.1943 9.88254 24.7202 9.71268C24.3455 7.84427 22.7064 6.49855 20.8007 6.49462C20.4338 6.49893 20.0693 6.55442 19.7177 6.65941C19.0829 4.9977 17.4243 3.95719 15.6519 4.10886C13.8795 4.26053 12.4219 5.56754 12.0785 7.31296C10.6038 7.48282 9.5181 8.77417 9.60387 10.2561C9.68964 11.738 10.9172 12.8954 12.4016 12.8939ZM20.8006 8.09446C22.1259 8.09446 23.2004 9.1689 23.2004 10.4942C23.2004 10.936 23.5584 11.2941 24.0002 11.2941H24.4002C25.0629 11.2941 25.6001 11.8313 25.6001 12.4939C25.6018 12.8126 25.476 13.1189 25.2505 13.3442C25.0252 13.5696 24.7189 13.6955 24.4002 13.6938H17.2011C16.5384 13.6938 16.0012 13.1566 16.0012 12.4939C16.0012 11.8313 16.5384 11.2941 17.2011 11.2941H17.601C18.0428 11.2941 18.4009 10.936 18.4009 10.4942C18.4009 9.1689 19.4753 8.09446 20.8006 8.09446ZM11.5513 9.2439C11.7766 9.01855 12.0829 8.89265 12.4016 8.89434H12.8016C13.2434 8.89434 13.6015 8.53616 13.6015 8.09446C13.603 6.90876 14.4703 5.90181 15.6427 5.72474C16.8151 5.54766 17.9412 6.25343 18.2929 7.3858C17.5648 7.97251 17.0652 8.79592 16.8811 9.71268C15.9197 9.81467 15.0833 10.4155 14.6798 11.2941H12.4016C11.739 11.2941 11.2017 10.7568 11.2017 10.0942C11.2 9.77549 11.3259 9.46934 11.5513 9.2439Z" fill="black"/>
<path d="M33.1996 8.89427H40.3988C41.8826 8.89399 43.1085 7.73621 43.1934 6.25485C43.2784 4.77349 42.1929 3.48317 40.7188 3.31332C40.3467 1.44172 38.7043 0.09375 36.7961 0.09375C34.888 0.09375 33.2455 1.44172 32.8734 3.31332C31.3982 3.48327 30.3122 4.77555 30.3989 6.25804C30.4855 7.74062 31.7146 8.89745 33.1996 8.89427ZM32.3493 5.24434C32.5747 5.0189 32.8808 4.89301 33.1996 4.89479H33.5996C34.0414 4.89479 34.3995 4.53671 34.3995 4.09491C34.3995 2.76963 35.4739 1.69519 36.7992 1.69519C38.1245 1.69519 39.1989 2.76963 39.1989 4.09491C39.1989 4.53671 39.557 4.89479 39.9988 4.89479H40.3988C40.8275 4.89479 41.2236 5.12351 41.4379 5.49472C41.6522 5.86593 41.6522 6.32338 41.4379 6.69458C41.2236 7.06579 40.8275 7.29451 40.3988 7.29451H33.1996C32.7131 7.29601 32.274 7.00364 32.0876 6.55435C31.9013 6.10496 32.0046 5.58752 32.3493 5.24434Z" fill="black"/>
</svg>
