<svg width="76" height="76" viewBox="0 0 76 76" fill="none" xmlns="http://www.w3.org/2000/svg">
<rect width="76" height="76"/>
<g clip-path="url(#clip0_28897_2114)">
<path d="M34.1669 35.1251C34.1669 37.3179 37.3661 38.5813 37.7311 38.7186C37.9042 38.7824 38.0944 38.7824 38.2677 38.7186C38.6341 38.5813 41.8334 37.3179 41.8334 35.1251C41.7994 33.7182 40.6339 32.6039 39.2269 32.6334C38.7931 32.6264 38.3667 32.7464 38 32.9784C37.6336 32.7464 37.2072 32.6264 36.7734 32.6334C35.3664 32.6039 34.2006 33.7182 34.1669 35.1251ZM36.7734 34.1667C37.0387 34.1642 37.2893 34.2899 37.4458 34.5043C37.7525 34.8082 38.2474 34.8082 38.5545 34.5043C38.711 34.2899 38.9612 34.1642 39.2269 34.1667C39.787 34.1376 40.2661 34.5654 40.3001 35.1251C40.3001 35.9341 38.8917 36.7813 38 37.1723C37.1086 36.7813 35.7002 35.9341 35.7002 35.1251C35.7342 34.5654 36.2133 34.1376 36.7734 34.1667Z" fill="black"/>
<path d="M59.6536 29.7094C59.0893 29.4914 58.4593 29.5213 57.9181 29.7915C57.3977 30.0488 57.0067 30.5103 56.8386 31.0658L56.3378 32.7455C55.9977 33.985 55.2811 35.0884 54.2872 35.9033C53.8057 36.2869 53.3832 36.7393 53.0336 37.2457C52.5163 37.9897 51.8407 38.6091 51.0549 39.0598L50.6791 39.2746C50.253 38.9429 49.728 38.7643 49.1879 38.7671C48.4007 38.7604 47.6616 39.1458 47.2162 39.795L44.6778 43.4628C43.5537 43.7762 39.6599 45.0926 37.9999 48.4582C36.3403 45.0926 32.4465 43.7762 31.3224 43.4628L28.7924 39.8041C28.347 39.1493 27.604 38.7601 26.8119 38.7671C26.2722 38.7643 25.7472 38.9429 25.3211 39.2746L24.9523 39.0643C24.1605 38.612 23.4793 37.9887 22.9589 37.2397C22.61 36.7358 22.1889 36.2855 21.7091 35.904C20.7149 35.0888 19.9982 33.9847 19.6585 32.7448L19.1577 31.0658C18.9903 30.511 18.6011 30.0498 18.082 29.7915C17.5409 29.5206 16.9102 29.4907 16.3455 29.7094C15.5292 30.0287 14.994 30.8184 15 31.6951V34.4553C15.0014 35.3972 15.2292 36.3252 15.6647 37.1608L17.0702 39.881C17.3728 40.4667 17.769 40.9995 18.2431 41.4578L22.3524 45.4232C25.2344 48.5151 29.2932 53.487 29.2932 54.867C29.1475 55.857 28.7969 56.806 28.2635 57.6528C27.8897 58.3554 27.9139 59.2033 28.3277 59.8831C28.7524 60.5832 29.5146 61.0079 30.3334 61.0002H34.9333C35.8163 61.01 36.6287 60.5183 37.0295 59.7315C37.4307 58.898 37.7553 58.0304 37.9999 57.1387C38.2449 58.0304 38.5695 58.898 38.9706 59.7315C39.3714 60.5183 40.1835 61.01 41.0665 61.0002H45.6668C46.4856 61.0079 47.2482 60.5836 47.6732 59.8831C48.0866 59.2033 48.1112 58.3554 47.7374 57.6528C47.204 56.806 46.853 55.857 46.707 54.867C46.707 53.487 50.7658 48.5151 53.62 45.4523L57.7602 41.4578C58.2329 40.9991 58.6281 40.4664 58.9299 39.881L60.3306 37.1678C60.7682 36.3315 60.9981 35.4022 60.9998 34.4581V31.6982C61.0076 30.8201 60.4717 30.0287 59.6536 29.7094ZM35.657 59.0422C35.5159 59.3093 35.2355 59.4739 34.9333 59.4669H30.3334C30.0516 59.4746 29.787 59.3311 29.6396 59.0903C29.5037 58.8696 29.4967 58.5927 29.6213 58.3652C30.2846 57.3064 30.6966 56.1097 30.8265 54.867C30.8265 52.3906 24.7013 45.6945 23.4456 44.3483L19.3058 40.3541C18.9506 40.0122 18.6541 39.6146 18.4277 39.177L17.0257 36.4561C16.7032 35.8394 16.5343 35.154 16.5333 34.4581V31.6982C16.5273 31.4606 16.666 31.2434 16.8839 31.1486C16.9604 31.1181 17.0422 31.102 17.1246 31.1002C17.2198 31.0998 17.3138 31.122 17.3991 31.1648C17.5391 31.2322 17.6451 31.3543 17.6918 31.5027L18.1919 33.1803C18.6211 34.7241 19.5195 36.0963 20.763 37.1071C21.1234 37.3942 21.4392 37.7325 21.7007 38.1115C22.3489 39.0461 23.1972 39.8248 24.184 40.3906L24.496 40.5692C24.4515 40.7419 24.4279 40.9195 24.4255 41.0977C24.4286 41.3546 24.4729 41.6098 24.5567 41.8526C24.7413 42.371 24.9168 42.9308 25.0625 43.4667C25.4162 44.7904 26.1223 45.9932 27.1057 46.9474C27.1253 46.9667 27.1464 46.9849 27.1685 47.0018L31.1781 50.1067C31.5133 50.366 31.9948 50.3046 32.2541 49.9698C32.5135 49.635 32.4524 49.1531 32.1173 48.8938L28.1413 45.8156C27.3721 45.0582 26.82 44.1082 26.5431 43.0648C26.3898 42.4889 26.1981 41.8926 26.0065 41.3574C25.9767 41.2739 25.9602 41.1862 25.9574 41.0977C25.9574 40.9521 26.002 40.81 26.0855 40.6906C26.0914 40.6812 26.0921 40.6713 26.0985 40.6622C26.1044 40.6527 26.1206 40.6352 26.1297 40.6201C26.3104 40.4215 26.5687 40.3123 26.8369 40.3218C27.105 40.3309 27.3556 40.4573 27.5219 40.6675L30.2214 44.5697C30.3323 44.7297 30.4997 44.8417 30.69 44.8835C30.9591 44.9417 37.2334 46.3701 37.2334 51.8003C37.2369 54.2995 36.7 56.7698 35.6594 59.0422H35.657ZM59.4665 34.4581C59.4655 35.1554 59.296 35.8423 58.972 36.4599L57.57 39.177C57.3433 39.6146 57.0464 40.0122 56.6912 40.3541L52.5261 44.3774C51.2992 45.6945 45.1737 52.3906 45.1737 54.867C45.3032 56.1097 45.7156 57.3064 46.3789 58.3652C46.5035 58.5927 46.4964 58.8696 46.3606 59.0903C46.2132 59.3311 45.9486 59.4746 45.6668 59.4669H41.0665C40.7637 59.4746 40.4825 59.31 40.3408 59.0422C39.3002 56.7698 38.7632 54.2995 38.7667 51.8003C38.7667 46.3701 45.041 44.9417 45.3088 44.8835C45.4987 44.8417 45.6661 44.7297 45.777 44.5697L48.4825 40.6598C48.6429 40.4415 48.8952 40.3092 49.1661 40.3014C49.4371 40.2937 49.6964 40.4116 49.8687 40.6208C49.8779 40.6359 49.8908 40.6482 49.9003 40.6629C49.9094 40.6773 49.907 40.6819 49.9133 40.6913C49.9965 40.8107 50.041 40.9528 50.0414 41.0984C50.0389 41.1806 50.0246 41.262 49.9982 41.3399C49.802 41.8933 49.615 42.49 49.4564 43.0687C49.1791 44.111 48.6274 45.06 47.8585 45.8163L43.8826 48.8945C43.5481 49.1542 43.487 49.6364 43.7471 49.9708C44.0068 50.3056 44.4886 50.3664 44.8235 50.1067L48.8331 47.0018C48.8552 46.9849 48.8762 46.9667 48.8959 46.9474C49.8786 45.9942 50.5847 44.7922 50.9384 43.4695C51.0848 42.9329 51.2603 42.371 51.4505 41.8351C51.5312 41.5975 51.5737 41.3487 51.5761 41.0977C51.5737 40.9195 51.5501 40.7419 51.5056 40.5692L51.8246 40.386C52.8069 39.8224 53.6513 39.0471 54.297 38.1168C54.5599 37.7356 54.8772 37.3952 55.2393 37.1064C56.4821 36.0963 57.3801 34.7248 57.809 33.1817L58.3098 31.5027C58.3565 31.3543 58.4625 31.2322 58.6025 31.1648C58.7636 31.0858 58.9506 31.0788 59.117 31.1455C59.3353 31.2402 59.4739 31.4575 59.4683 31.6951L59.4665 34.4581Z" fill="black"/>
<path d="M34.5034 26.5652C31.5196 28.0312 29.6129 31.0493 29.5704 34.3735C29.4876 37.6728 31.3635 40.7086 34.3507 42.1106C34.5062 42.1882 34.6406 42.3029 34.7417 42.4444C35.4903 43.506 36.7091 44.1363 38.0084 44.1335C39.3072 44.1307 40.5236 43.4951 41.2676 42.4303C41.3641 42.2966 41.4919 42.1882 41.6403 42.1155C44.5476 40.7461 46.4115 37.8304 46.4333 34.6168C46.4333 30.8384 44.529 27.749 41.4631 26.5523C41.2231 26.4554 41.0662 26.222 41.0665 25.9634V22.961C41.063 22.1787 41.5172 21.4666 42.2282 21.1402C42.8866 20.7795 43.2151 20.0172 43.0255 19.2907C42.836 18.5643 42.1769 18.0599 41.4263 18.0666H41.0665V16.7365C41.0658 15.7777 40.2888 15.0007 39.3304 15H36.6698C35.7114 15.0007 34.9344 15.7777 34.9333 16.7365V18.0666H34.5739C33.6646 18.0645 32.9252 18.7987 32.921 19.708C32.921 20.3053 33.2474 20.8546 33.772 21.1402C34.4799 21.4231 34.9414 22.112 34.9333 22.8743V25.9634C34.9231 26.2318 34.754 26.4684 34.5034 26.5652ZM36.4666 16.7365C36.4666 16.6242 36.5575 16.5333 36.6698 16.5333H39.3304C39.4423 16.5333 39.5332 16.6242 39.5332 16.7365V18.0666H36.4666V16.7365ZM34.5062 19.794C34.4739 19.7771 34.4536 19.7431 34.4543 19.7066C34.4578 19.6441 34.5115 19.5964 34.5739 19.5999H41.4263C41.4891 19.5971 41.5424 19.6452 41.5459 19.708C41.5463 19.7442 41.5259 19.7775 41.4936 19.794C40.2885 20.3878 39.5273 21.6172 39.5332 22.961V25.9634C39.5353 26.8534 40.0786 27.6525 40.9058 27.982C43.3667 28.9426 44.9 31.4831 44.9 34.6168C44.88 37.2384 43.3568 39.6157 40.9841 40.73C40.6068 40.9114 40.2801 41.1831 40.0333 41.5214C39.5831 42.2033 38.8169 42.6093 37.9999 42.5998C37.1864 42.617 36.4214 42.2141 35.9753 41.5337C35.7251 41.189 35.3934 40.9118 35.0102 40.7261C32.5704 39.5859 31.036 37.1103 31.1002 34.4181C31.142 31.6895 32.689 29.2072 35.1204 27.968C35.9258 27.6248 36.4536 26.839 36.4666 25.9634V22.8743C36.4754 21.5516 35.7082 20.3464 34.5062 19.794Z" fill="black"/>
<path d="M48.1913 22.8913L46.658 24.4247C46.4587 24.6173 46.379 24.9023 46.4492 25.1704C46.519 25.4386 46.7286 25.6477 46.9967 25.7179C47.2648 25.7881 47.5498 25.7081 47.7421 25.5087L49.2754 23.9754C49.566 23.6747 49.5618 23.1967 49.2663 22.9008C48.9704 22.605 48.4924 22.6011 48.1913 22.8913Z" fill="black"/>
<path d="M47.9667 27.2668C47.9667 27.6901 48.3099 28.0333 48.7335 28.0333H50.2668C50.6901 28.0333 51.0333 27.6901 51.0333 27.2668C51.0333 26.8432 50.6901 26.5 50.2668 26.5H48.7335C48.3099 26.5 47.9667 26.8432 47.9667 27.2668Z" fill="black"/>
<path d="M28.8001 25.7334C29.11 25.7334 29.3897 25.5466 29.5083 25.2603C29.627 24.9739 29.5613 24.644 29.342 24.4247L27.8087 22.8913C27.5079 22.6011 27.0299 22.605 26.7341 22.9008C26.4382 23.1967 26.4344 23.6747 26.7246 23.9754L28.2579 25.5087C28.4018 25.6526 28.5969 25.7334 28.8001 25.7334Z" fill="black"/>
<path d="M24.9667 27.2668C24.9667 27.6901 25.3099 28.0333 25.7335 28.0333H27.2668C27.6901 28.0333 28.0333 27.6901 28.0333 27.2668C28.0333 26.8432 27.6901 26.5 27.2668 26.5H25.7335C25.3099 26.5 24.9667 26.8432 24.9667 27.2668Z" fill="black"/>
</g>
<defs>
<clipPath id="clip0_28897_2114">
<rect width="46" height="46" fill="black" transform="translate(15 15)"/>
</clipPath>
</defs>
</svg>
