<svg width="76" height="76" viewBox="0 0 76 76" fill="none" xmlns="http://www.w3.org/2000/svg">
<rect width="76" height="76"/>
<g clip-path="url(#clip0_28897_2112)">
<path d="M48.0282 16.7948V11.4505C48.0282 10.6494 47.3788 10 46.5777 10H42.2263C41.4252 10 40.7758 10.6494 40.7758 11.4505V12.3019L34.3074 13.4811C33.5682 13.6152 32.8889 13.9753 32.363 14.5117L27.6315 19.3657C27.2088 19.7907 26.9807 20.3716 27.0013 20.9707C27.0219 21.5697 27.2894 22.1336 27.7403 22.5285C28.1275 22.87 28.6267 23.0571 29.1429 23.0543C29.6005 23.0531 30.0471 22.9146 30.4252 22.6569L35.0885 19.5006L35.0979 19.5253C35.6042 20.7877 36.9179 21.5305 38.2607 21.3137L40.3 20.9794C40.5941 20.9305 40.8949 20.9411 41.1848 21.0106L42.2865 21.2898C43.2292 21.5109 44.2168 21.4414 45.1192 21.0904C46.8824 20.396 48.0379 18.6897 48.0282 16.7948ZM46.5777 16.7948C46.5838 18.0936 45.7922 19.2631 44.584 19.74C43.9605 19.9783 43.2803 20.0263 42.6295 19.8778L41.5329 19.6C41.0521 19.4828 40.5525 19.4643 40.0643 19.5456L38.0242 19.8799C37.3729 19.9849 36.7328 19.6371 36.4664 19.0336L39.268 18.2358C40.0307 18.0136 40.7256 17.604 41.2893 17.0443C41.4776 16.862 41.5531 16.5923 41.4865 16.3388C41.42 16.0853 41.2218 15.8874 40.9682 15.8212C40.7146 15.755 40.445 15.8308 40.263 16.0195C39.8737 16.4065 39.3934 16.6895 38.8662 16.8426L35.2915 17.858C34.971 17.9357 34.6639 18.0611 34.3806 18.23L29.6122 21.4588C29.3405 21.6598 28.9681 21.6548 28.702 21.4465C28.5451 21.3109 28.4525 21.1156 28.4467 20.9083C28.4406 20.7156 28.5149 20.529 28.652 20.3934L28.6621 20.3825L33.3957 15.5234C33.7123 15.1999 34.1216 14.9827 34.567 14.9019L41.0354 13.7263C41.724 13.601 42.225 13.0018 42.2263 12.3019V11.4505H46.5777V16.7948Z" fill="black"/>
<path d="M59.2596 49.0282L64.6039 49.0282C65.4049 49.0282 66.0543 48.3788 66.0543 47.5777L66.0543 43.2263C66.0543 42.4252 65.4049 41.7758 64.6039 41.7758L63.7524 41.7758L62.5732 35.3074C62.4391 34.5682 62.079 33.8889 61.5426 33.363L56.6886 28.6315C56.2636 28.2088 55.6827 27.9807 55.0837 28.0013C54.4846 28.0219 53.9207 28.2894 53.5258 28.7403C53.1844 29.1275 52.9972 29.6267 53 30.1429C53.0013 30.6005 53.1397 31.0471 53.3975 31.4252L56.5537 36.0885L56.529 36.0979C55.2666 36.6042 54.5238 37.9179 54.7406 39.2607L55.0749 41.3C55.1238 41.5941 55.1132 41.8949 55.0438 42.1848L54.7645 43.2865C54.5434 44.2292 54.613 45.2168 54.964 46.1192C55.6584 47.8824 57.3646 49.0379 59.2596 49.0282ZM59.2596 47.5777C57.9607 47.5838 56.7913 46.7922 56.3144 45.584C56.076 44.9605 56.0281 44.2803 56.1766 43.6295L56.4543 42.5329C56.5715 42.0521 56.59 41.5525 56.5087 41.0643L56.1744 39.0242C56.0694 38.3729 56.4172 37.7328 57.0208 37.4664L57.8185 40.268C58.0407 41.0307 58.4504 41.7256 59.0101 42.2893C59.1923 42.4776 59.462 42.5531 59.7155 42.4865C59.969 42.42 60.1669 42.2218 60.2331 41.9682C60.2993 41.7146 60.2235 41.445 60.0349 41.263C59.6479 40.8737 59.3648 40.3934 59.2117 39.8662L58.1964 36.2915C58.1186 35.971 57.9932 35.6639 57.8243 35.3806L54.5956 30.6122C54.3945 30.3405 54.3996 29.9681 54.6079 29.702C54.7435 29.5451 54.9388 29.4525 55.146 29.4467C55.3387 29.4406 55.5253 29.5149 55.6609 29.652L55.6718 29.6621L60.5309 34.3957C60.8544 34.7123 61.0716 35.1216 61.1525 35.567L62.3281 42.0354C62.4533 42.724 63.0525 43.225 63.7524 43.2263L64.6039 43.2263L64.6039 47.5777L59.2596 47.5777Z" fill="black"/>
<path d="M29.0001 60.2594L29.0001 65.6037C29.0001 66.4048 29.6495 67.0542 30.4505 67.0542L34.802 67.0542C35.6031 67.0542 36.2525 66.4048 36.2525 65.6037L36.2525 64.7523L42.7209 63.573C43.46 63.439 44.1393 63.0789 44.6652 62.5425L49.3967 57.6885C49.8194 57.2635 50.0476 56.6826 50.027 56.0835C50.0063 55.4845 49.7389 54.9206 49.2879 54.5257C48.9007 54.1842 48.4015 53.9971 47.8853 53.9999C47.4278 54.0011 46.9811 54.1396 46.6031 54.3973L41.9398 57.5536L41.9304 57.5289C41.424 56.2665 40.1103 55.5237 38.7676 55.7405L36.7282 56.0748C36.4342 56.1237 36.1333 56.1131 35.8434 56.0436L34.7418 55.7644C33.799 55.5433 32.8115 55.6128 31.909 55.9638C30.1458 56.6582 28.9904 58.3645 29.0001 60.2594ZM30.4505 60.2594C30.4444 58.9606 31.2361 57.7911 32.4442 57.3142C33.0677 57.0759 33.748 57.0279 34.3987 57.1764L35.4953 57.4542C35.9761 57.5714 36.4757 57.5899 36.9639 57.5086L39.004 57.1743C39.6553 57.0693 40.2955 57.4171 40.5618 58.0206L37.7602 58.8184C36.9976 59.0406 36.3027 59.4502 35.739 60.0099C35.5506 60.1922 35.4752 60.4619 35.5417 60.7154C35.6083 60.9689 35.8064 61.1668 36.06 61.233C36.3137 61.2992 36.5832 61.2234 36.7652 61.0347C37.1546 60.6477 37.6348 60.3647 38.162 60.2116L41.7367 59.1962C42.0572 59.1185 42.3643 58.9931 42.6476 58.8242L47.4161 55.5954C47.6877 55.3944 48.0601 55.3994 48.3262 55.6077C48.4831 55.7433 48.5758 55.9386 48.5815 56.1459C48.5877 56.3386 48.5133 56.5252 48.3763 56.6608L48.3661 56.6717L43.6325 61.5308C43.3159 61.8543 42.9066 62.0715 42.4612 62.1523L35.9928 63.3279C35.3042 63.4532 34.8033 64.0524 34.802 64.7523L34.802 65.6037L30.4505 65.6037L30.4505 60.2594Z" fill="black"/>
<path d="M15.7948 29.0001L10.4505 29.0001C9.6494 29.0001 9 29.6495 9 30.4506L9 34.8021C9 35.6031 9.6494 36.2525 10.4505 36.2525L11.3019 36.2525L12.4811 42.7209C12.6152 43.4601 12.9753 44.1394 13.5117 44.6653L18.3657 49.3968C18.7907 49.8195 19.3716 50.0476 19.9707 50.027C20.5697 50.0064 21.1336 49.7389 21.5285 49.288C21.87 48.9008 22.0571 48.4016 22.0543 47.8854C22.0531 47.4278 21.9146 46.9812 21.6569 46.6032L18.5006 41.9399L18.5253 41.9304C19.7877 41.4241 20.5305 40.1104 20.3137 38.7677L19.9794 36.7283C19.9305 36.4342 19.9411 36.1334 20.0106 35.8435L20.2898 34.7419C20.5109 33.7991 20.4414 32.8115 20.0904 31.9091C19.396 30.1459 17.6897 28.9905 15.7948 29.0001ZM15.7948 30.4506C17.0936 30.4445 18.2631 31.2362 18.74 32.4443C18.9783 33.0678 19.0263 33.748 18.8778 34.3988L18.6 35.4954C18.4828 35.9762 18.4643 36.4758 18.5456 36.964L18.8799 39.0041C18.9849 39.6554 18.6371 40.2955 18.0336 40.5619L17.2358 37.7603C17.0136 36.9976 16.604 36.3028 16.0442 35.7391C15.862 35.5507 15.5923 35.4753 15.3388 35.5418C15.0853 35.6084 14.8874 35.8065 14.8212 36.0601C14.755 36.3137 14.8308 36.5833 15.0195 36.7653C15.4065 37.1546 15.6895 37.6349 15.8426 38.1621L16.858 41.7368C16.9357 42.0573 17.0611 42.3644 17.23 42.6477L20.4588 47.4161C20.6598 47.6878 20.6548 48.0602 20.4465 48.3263C20.3109 48.4832 20.1156 48.5759 19.9083 48.5816C19.7156 48.5878 19.529 48.5134 19.3934 48.3764L19.3825 48.3662L14.5234 43.6326C14.1999 43.316 13.9827 42.9067 13.9019 42.4613L12.7263 35.9929C12.601 35.3043 12.0018 34.8034 11.3019 34.8021L10.4505 34.8021L10.4505 30.4506L15.7948 30.4506Z" fill="black"/>
<mask id="path-6-outside-1_28897_2112" maskUnits="userSpaceOnUse" x="22.3324" y="23.332" width="30" height="30" fill="black">
<rect fill="black" x="22.3324" y="23.332" width="30" height="30"/>
<path d="M51.0602 33.5574C48.9424 28.0002 43.6117 24.329 37.6646 24.3321C36.342 24.3296 35.0254 24.5119 33.7531 24.8735L33.734 24.8793C30.2028 25.8777 27.1928 28.1996 25.3307 31.3616C25.2977 31.4172 25.2764 31.479 25.2679 31.5432C25.0391 31.8486 24.8492 32.1813 24.7025 32.5336L24.6665 32.6112C22.6049 37.0519 22.9498 42.2373 25.5816 46.3658C28.2134 50.4942 32.7687 52.9957 37.6646 53.001C40.956 53.0039 44.1471 51.8686 46.6971 49.7877C46.9037 49.8054 47.0978 49.6868 47.1762 49.4949C47.1912 49.4506 47.1998 49.4045 47.2016 49.3579C51.6425 45.4024 53.178 39.1146 51.0602 33.5574ZM33.6837 25.8947C34.3172 26.6717 35.2507 27.1433 36.2521 27.1923C36.5259 27.1994 36.7998 27.1874 37.0719 27.1563C37.5121 27.0566 37.9732 27.1114 38.3777 27.3116C38.6041 27.4327 38.7291 27.6838 38.6892 27.9374C38.5852 28.1285 38.4425 28.2957 38.2704 28.4286C37.8421 28.7191 37.5841 29.2016 37.5804 29.719C37.6128 30.0412 37.7852 30.3327 38.0519 30.5163C38.4461 30.7797 38.932 30.8677 39.3936 30.7593C39.6493 30.6923 39.8984 30.6021 40.1377 30.4899C40.3553 30.3829 40.5855 30.3039 40.8229 30.2547C41.4296 30.1694 42.0525 30.5704 42.6884 31.0266C43.007 31.2571 43.5259 31.6926 43.4186 32.0233C43.3362 32.2767 43.0267 32.4598 42.6999 32.6543C42.5676 32.7324 42.4382 32.8091 42.2887 32.9131C41.7594 33.3138 41.1793 33.6427 40.5637 33.8911C40.331 33.9685 40.0941 34.0325 39.854 34.0828C39.3541 34.1702 38.8738 34.3455 38.4352 34.6008C37.5549 35.1691 37.6623 36.0786 37.7298 36.6253C37.714 36.62 37.6968 36.6138 37.6781 36.6056C37.5961 36.5721 37.5156 36.5337 37.4356 36.4963C36.9401 36.1621 36.2983 36.1364 35.7776 36.43C35.257 36.7236 34.9468 37.2861 34.9765 37.8831C34.9765 39.0202 35.8208 39.6834 36.4993 40.2157L36.735 40.4026C36.8848 40.5402 37.0196 40.6932 37.137 40.8592C36.1739 40.6168 35.2101 40.3783 34.2457 40.1438C33.435 39.9479 32.6165 39.7063 32.2811 39.1064C32.1529 38.8346 32.0664 38.5449 32.0247 38.2473C31.964 37.7749 31.7979 37.3224 31.5388 36.9228C31.047 36.3739 30.3843 36.0072 29.6581 35.8821L29.5704 35.8571C28.8516 35.6434 28.4577 35.3861 28.3293 35.0493C28.2492 34.6121 28.3206 34.1606 28.5315 33.7694C28.8024 33.2059 28.8928 32.5724 28.7903 31.9557C28.6827 31.4827 28.3666 31.0839 27.9306 30.8713C27.6716 30.7507 27.3888 30.6899 27.1031 30.6935C27.0422 30.6935 26.9804 30.6964 26.9181 30.7012C28.6013 28.4168 30.9725 26.7321 33.6837 25.8947ZM35.6512 51.8871L35.6555 51.8914C35.4675 51.7871 35.2851 51.6729 35.1092 51.5493C34.7219 51.308 34.4571 50.9117 34.3823 50.4615C34.409 50.1725 34.5025 49.8936 34.6554 49.6469C34.7625 49.4188 34.8417 49.1786 34.8912 48.9315C34.9216 48.7072 35.0036 48.493 35.1308 48.3057C35.2725 48.1765 35.4367 48.0745 35.6152 48.0047C35.8152 47.9162 36.0053 47.807 36.1825 47.6789C36.5649 47.3744 36.882 46.9959 37.115 46.5663C37.2276 46.3688 37.3249 46.1537 37.4188 45.9434C37.5463 45.6098 37.724 45.2978 37.9459 45.0181C38.4251 44.5135 39.3691 44.8882 39.7515 45.0712C40.4811 45.3989 41.1519 45.8442 41.7372 46.3894L41.7923 46.446C42.4123 47.1013 43.0721 47.718 43.7679 48.2922C44.3435 48.7369 44.9742 49.1053 45.6444 49.3881C42.7812 51.5233 39.1823 52.4232 35.6512 51.8871ZM46.4911 48.7063C45.7311 48.4251 45.0165 48.0343 44.3698 47.5462C43.7046 46.9957 43.0737 46.4053 42.4804 45.778L42.4253 45.722C41.7646 45.096 41.0032 44.5857 40.1731 44.2126C38.9608 43.6309 37.898 43.6855 37.2555 44.363C36.9559 44.7177 36.7173 45.1199 36.5496 45.5528C36.4639 45.7416 36.3805 45.928 36.288 46.0909C36.1176 46.4095 35.8854 46.691 35.6052 46.919C35.4792 47.0067 35.3449 47.0816 35.2041 47.1427C34.9122 47.2626 34.6471 47.4394 34.4245 47.6631C34.1818 47.9662 34.0221 48.3271 33.9611 48.7106C33.9278 48.882 33.8755 49.0491 33.8054 49.209C33.5771 49.5901 33.4464 50.0216 33.425 50.4653C33.432 50.8134 33.5337 51.153 33.7191 51.4476C30.0283 50.3034 27.0115 47.6211 25.4435 44.0896C23.8755 40.558 23.9089 36.5213 25.5352 33.0162L25.5717 32.9371C25.7017 32.5936 25.8959 32.278 26.1438 32.007C26.2319 31.9192 26.3358 31.8486 26.45 31.7991C26.6567 31.7066 26.8801 31.6577 27.1065 31.6554C27.2465 31.6521 27.3854 31.6799 27.5134 31.7368C27.6943 31.8281 27.8227 31.9979 27.8612 32.1968C27.9032 32.6256 27.8234 33.0574 27.6308 33.4427C27.3249 34.0457 27.2544 34.7409 27.4329 35.393C27.7544 36.233 28.6505 36.5857 29.3017 36.7792L29.3975 36.8061C29.9153 36.8891 30.395 37.1295 30.7713 37.4946C30.9413 37.7833 31.0493 38.1043 31.0881 38.4372C31.147 38.8334 31.2683 39.2179 31.4475 39.5762C31.9707 40.5139 33.0522 40.8431 34.024 41.0779C35.0667 41.3312 36.1103 41.5897 37.1549 41.8532C37.365 41.9217 37.5917 41.9188 37.7999 41.8451C38.0428 41.7507 38.2167 41.5338 38.2561 41.2763C38.3654 40.5503 37.3624 39.6773 37.3457 39.6648L37.0936 39.4645C36.499 38.9978 35.9374 38.5569 35.9374 37.8832C35.9317 37.6002 36.0948 37.3409 36.3523 37.2234C36.5311 37.1491 36.6806 37.2033 37.0289 37.3672C37.1248 37.4122 37.2206 37.4572 37.3083 37.4927C37.6806 37.6924 38.1385 37.6347 38.4497 37.349C38.6521 37.123 38.7375 36.8156 38.6806 36.5176C38.6021 35.8789 38.6327 35.6148 38.9547 35.4064C39.3024 35.2153 39.6799 35.0842 40.0712 35.0187C40.3469 34.9597 40.6189 34.8847 40.8858 34.794C41.5927 34.5119 42.2586 34.1364 42.8658 33.6775C42.9617 33.6099 43.0723 33.5457 43.1835 33.4801C43.6964 33.2502 44.1045 32.8364 44.3273 32.3204C44.553 31.6276 44.1893 30.9308 43.2453 30.2499C42.6392 29.8153 41.7201 29.1583 40.6822 29.3074C40.3602 29.3665 40.0476 29.469 39.7531 29.6121C39.5654 29.7006 39.3705 29.7728 39.1704 29.8277C38.9783 29.8721 38.7765 29.8403 38.6074 29.7391C38.5369 29.6882 38.5331 29.6485 38.5317 29.6337C38.5211 29.5091 38.6754 29.3553 38.915 29.1343C39.2102 28.9024 39.4426 28.6003 39.5912 28.2555C39.7883 27.5778 39.4973 26.8531 38.8863 26.4999C38.306 26.1807 37.632 26.0754 36.982 26.2023C36.754 26.2291 36.5245 26.24 36.2949 26.2349C35.7221 26.2038 35.1754 25.9849 34.7395 25.612C40.7039 24.2684 46.8197 27.1421 49.5925 32.591C52.365 38.04 51.0881 44.6756 46.4911 48.7063Z"/>
</mask>
<path d="M51.0602 33.5574C48.9424 28.0002 43.6117 24.329 37.6646 24.3321C36.342 24.3296 35.0254 24.5119 33.7531 24.8735L33.734 24.8793C30.2028 25.8777 27.1928 28.1996 25.3307 31.3616C25.2977 31.4172 25.2764 31.479 25.2679 31.5432C25.0391 31.8486 24.8492 32.1813 24.7025 32.5336L24.6665 32.6112C22.6049 37.0519 22.9498 42.2373 25.5816 46.3658C28.2134 50.4942 32.7687 52.9957 37.6646 53.001C40.956 53.0039 44.1471 51.8686 46.6971 49.7877C46.9037 49.8054 47.0978 49.6868 47.1762 49.4949C47.1912 49.4506 47.1998 49.4045 47.2016 49.3579C51.6425 45.4024 53.178 39.1146 51.0602 33.5574ZM33.6837 25.8947C34.3172 26.6717 35.2507 27.1433 36.2521 27.1923C36.5259 27.1994 36.7998 27.1874 37.0719 27.1563C37.5121 27.0566 37.9732 27.1114 38.3777 27.3116C38.6041 27.4327 38.7291 27.6838 38.6892 27.9374C38.5852 28.1285 38.4425 28.2957 38.2704 28.4286C37.8421 28.7191 37.5841 29.2016 37.5804 29.719C37.6128 30.0412 37.7852 30.3327 38.0519 30.5163C38.4461 30.7797 38.932 30.8677 39.3936 30.7593C39.6493 30.6923 39.8984 30.6021 40.1377 30.4899C40.3553 30.3829 40.5855 30.3039 40.8229 30.2547C41.4296 30.1694 42.0525 30.5704 42.6884 31.0266C43.007 31.2571 43.5259 31.6926 43.4186 32.0233C43.3362 32.2767 43.0267 32.4598 42.6999 32.6543C42.5676 32.7324 42.4382 32.8091 42.2887 32.9131C41.7594 33.3138 41.1793 33.6427 40.5637 33.8911C40.331 33.9685 40.0941 34.0325 39.854 34.0828C39.3541 34.1702 38.8738 34.3455 38.4352 34.6008C37.5549 35.1691 37.6623 36.0786 37.7298 36.6253C37.714 36.62 37.6968 36.6138 37.6781 36.6056C37.5961 36.5721 37.5156 36.5337 37.4356 36.4963C36.9401 36.1621 36.2983 36.1364 35.7776 36.43C35.257 36.7236 34.9468 37.2861 34.9765 37.8831C34.9765 39.0202 35.8208 39.6834 36.4993 40.2157L36.735 40.4026C36.8848 40.5402 37.0196 40.6932 37.137 40.8592C36.1739 40.6168 35.2101 40.3783 34.2457 40.1438C33.435 39.9479 32.6165 39.7063 32.2811 39.1064C32.1529 38.8346 32.0664 38.5449 32.0247 38.2473C31.964 37.7749 31.7979 37.3224 31.5388 36.9228C31.047 36.3739 30.3843 36.0072 29.6581 35.8821L29.5704 35.8571C28.8516 35.6434 28.4577 35.3861 28.3293 35.0493C28.2492 34.6121 28.3206 34.1606 28.5315 33.7694C28.8024 33.2059 28.8928 32.5724 28.7903 31.9557C28.6827 31.4827 28.3666 31.0839 27.9306 30.8713C27.6716 30.7507 27.3888 30.6899 27.1031 30.6935C27.0422 30.6935 26.9804 30.6964 26.9181 30.7012C28.6013 28.4168 30.9725 26.7321 33.6837 25.8947ZM35.6512 51.8871L35.6555 51.8914C35.4675 51.7871 35.2851 51.6729 35.1092 51.5493C34.7219 51.308 34.4571 50.9117 34.3823 50.4615C34.409 50.1725 34.5025 49.8936 34.6554 49.6469C34.7625 49.4188 34.8417 49.1786 34.8912 48.9315C34.9216 48.7072 35.0036 48.493 35.1308 48.3057C35.2725 48.1765 35.4367 48.0745 35.6152 48.0047C35.8152 47.9162 36.0053 47.807 36.1825 47.6789C36.5649 47.3744 36.882 46.9959 37.115 46.5663C37.2276 46.3688 37.3249 46.1537 37.4188 45.9434C37.5463 45.6098 37.724 45.2978 37.9459 45.0181C38.4251 44.5135 39.3691 44.8882 39.7515 45.0712C40.4811 45.3989 41.1519 45.8442 41.7372 46.3894L41.7923 46.446C42.4123 47.1013 43.0721 47.718 43.7679 48.2922C44.3435 48.7369 44.9742 49.1053 45.6444 49.3881C42.7812 51.5233 39.1823 52.4232 35.6512 51.8871ZM46.4911 48.7063C45.7311 48.4251 45.0165 48.0343 44.3698 47.5462C43.7046 46.9957 43.0737 46.4053 42.4804 45.778L42.4253 45.722C41.7646 45.096 41.0032 44.5857 40.1731 44.2126C38.9608 43.6309 37.898 43.6855 37.2555 44.363C36.9559 44.7177 36.7173 45.1199 36.5496 45.5528C36.4639 45.7416 36.3805 45.928 36.288 46.0909C36.1176 46.4095 35.8854 46.691 35.6052 46.919C35.4792 47.0067 35.3449 47.0816 35.2041 47.1427C34.9122 47.2626 34.6471 47.4394 34.4245 47.6631C34.1818 47.9662 34.0221 48.3271 33.9611 48.7106C33.9278 48.882 33.8755 49.0491 33.8054 49.209C33.5771 49.5901 33.4464 50.0216 33.425 50.4653C33.432 50.8134 33.5337 51.153 33.7191 51.4476C30.0283 50.3034 27.0115 47.6211 25.4435 44.0896C23.8755 40.558 23.9089 36.5213 25.5352 33.0162L25.5717 32.9371C25.7017 32.5936 25.8959 32.278 26.1438 32.007C26.2319 31.9192 26.3358 31.8486 26.45 31.7991C26.6567 31.7066 26.8801 31.6577 27.1065 31.6554C27.2465 31.6521 27.3854 31.6799 27.5134 31.7368C27.6943 31.8281 27.8227 31.9979 27.8612 32.1968C27.9032 32.6256 27.8234 33.0574 27.6308 33.4427C27.3249 34.0457 27.2544 34.7409 27.4329 35.393C27.7544 36.233 28.6505 36.5857 29.3017 36.7792L29.3975 36.8061C29.9153 36.8891 30.395 37.1295 30.7713 37.4946C30.9413 37.7833 31.0493 38.1043 31.0881 38.4372C31.147 38.8334 31.2683 39.2179 31.4475 39.5762C31.9707 40.5139 33.0522 40.8431 34.024 41.0779C35.0667 41.3312 36.1103 41.5897 37.1549 41.8532C37.365 41.9217 37.5917 41.9188 37.7999 41.8451C38.0428 41.7507 38.2167 41.5338 38.2561 41.2763C38.3654 40.5503 37.3624 39.6773 37.3457 39.6648L37.0936 39.4645C36.499 38.9978 35.9374 38.5569 35.9374 37.8832C35.9317 37.6002 36.0948 37.3409 36.3523 37.2234C36.5311 37.1491 36.6806 37.2033 37.0289 37.3672C37.1248 37.4122 37.2206 37.4572 37.3083 37.4927C37.6806 37.6924 38.1385 37.6347 38.4497 37.349C38.6521 37.123 38.7375 36.8156 38.6806 36.5176C38.6021 35.8789 38.6327 35.6148 38.9547 35.4064C39.3024 35.2153 39.6799 35.0842 40.0712 35.0187C40.3469 34.9597 40.6189 34.8847 40.8858 34.794C41.5927 34.5119 42.2586 34.1364 42.8658 33.6775C42.9617 33.6099 43.0723 33.5457 43.1835 33.4801C43.6964 33.2502 44.1045 32.8364 44.3273 32.3204C44.553 31.6276 44.1893 30.9308 43.2453 30.2499C42.6392 29.8153 41.7201 29.1583 40.6822 29.3074C40.3602 29.3665 40.0476 29.469 39.7531 29.6121C39.5654 29.7006 39.3705 29.7728 39.1704 29.8277C38.9783 29.8721 38.7765 29.8403 38.6074 29.7391C38.5369 29.6882 38.5331 29.6485 38.5317 29.6337C38.5211 29.5091 38.6754 29.3553 38.915 29.1343C39.2102 28.9024 39.4426 28.6003 39.5912 28.2555C39.7883 27.5778 39.4973 26.8531 38.8863 26.4999C38.306 26.1807 37.632 26.0754 36.982 26.2023C36.754 26.2291 36.5245 26.24 36.2949 26.2349C35.7221 26.2038 35.1754 25.9849 34.7395 25.612C40.7039 24.2684 46.8197 27.1421 49.5925 32.591C52.365 38.04 51.0881 44.6756 46.4911 48.7063Z" fill="black"/>
<path d="M51.0602 33.5574C48.9424 28.0002 43.6117 24.329 37.6646 24.3321C36.342 24.3296 35.0254 24.5119 33.7531 24.8735L33.734 24.8793C30.2028 25.8777 27.1928 28.1996 25.3307 31.3616C25.2977 31.4172 25.2764 31.479 25.2679 31.5432C25.0391 31.8486 24.8492 32.1813 24.7025 32.5336L24.6665 32.6112C22.6049 37.0519 22.9498 42.2373 25.5816 46.3658C28.2134 50.4942 32.7687 52.9957 37.6646 53.001C40.956 53.0039 44.1471 51.8686 46.6971 49.7877C46.9037 49.8054 47.0978 49.6868 47.1762 49.4949C47.1912 49.4506 47.1998 49.4045 47.2016 49.3579C51.6425 45.4024 53.178 39.1146 51.0602 33.5574ZM33.6837 25.8947C34.3172 26.6717 35.2507 27.1433 36.2521 27.1923C36.5259 27.1994 36.7998 27.1874 37.0719 27.1563C37.5121 27.0566 37.9732 27.1114 38.3777 27.3116C38.6041 27.4327 38.7291 27.6838 38.6892 27.9374C38.5852 28.1285 38.4425 28.2957 38.2704 28.4286C37.8421 28.7191 37.5841 29.2016 37.5804 29.719C37.6128 30.0412 37.7852 30.3327 38.0519 30.5163C38.4461 30.7797 38.932 30.8677 39.3936 30.7593C39.6493 30.6923 39.8984 30.6021 40.1377 30.4899C40.3553 30.3829 40.5855 30.3039 40.8229 30.2547C41.4296 30.1694 42.0525 30.5704 42.6884 31.0266C43.007 31.2571 43.5259 31.6926 43.4186 32.0233C43.3362 32.2767 43.0267 32.4598 42.6999 32.6543C42.5676 32.7324 42.4382 32.8091 42.2887 32.9131C41.7594 33.3138 41.1793 33.6427 40.5637 33.8911C40.331 33.9685 40.0941 34.0325 39.854 34.0828C39.3541 34.1702 38.8738 34.3455 38.4352 34.6008C37.5549 35.1691 37.6623 36.0786 37.7298 36.6253C37.714 36.62 37.6968 36.6138 37.6781 36.6056C37.5961 36.5721 37.5156 36.5337 37.4356 36.4963C36.9401 36.1621 36.2983 36.1364 35.7776 36.43C35.257 36.7236 34.9468 37.2861 34.9765 37.8831C34.9765 39.0202 35.8208 39.6834 36.4993 40.2157L36.735 40.4026C36.8848 40.5402 37.0196 40.6932 37.137 40.8592C36.1739 40.6168 35.2101 40.3783 34.2457 40.1438C33.435 39.9479 32.6165 39.7063 32.2811 39.1064C32.1529 38.8346 32.0664 38.5449 32.0247 38.2473C31.964 37.7749 31.7979 37.3224 31.5388 36.9228C31.047 36.3739 30.3843 36.0072 29.6581 35.8821L29.5704 35.8571C28.8516 35.6434 28.4577 35.3861 28.3293 35.0493C28.2492 34.6121 28.3206 34.1606 28.5315 33.7694C28.8024 33.2059 28.8928 32.5724 28.7903 31.9557C28.6827 31.4827 28.3666 31.0839 27.9306 30.8713C27.6716 30.7507 27.3888 30.6899 27.1031 30.6935C27.0422 30.6935 26.9804 30.6964 26.9181 30.7012C28.6013 28.4168 30.9725 26.7321 33.6837 25.8947ZM35.6512 51.8871L35.6555 51.8914C35.4675 51.7871 35.2851 51.6729 35.1092 51.5493C34.7219 51.308 34.4571 50.9117 34.3823 50.4615C34.409 50.1725 34.5025 49.8936 34.6554 49.6469C34.7625 49.4188 34.8417 49.1786 34.8912 48.9315C34.9216 48.7072 35.0036 48.493 35.1308 48.3057C35.2725 48.1765 35.4367 48.0745 35.6152 48.0047C35.8152 47.9162 36.0053 47.807 36.1825 47.6789C36.5649 47.3744 36.882 46.9959 37.115 46.5663C37.2276 46.3688 37.3249 46.1537 37.4188 45.9434C37.5463 45.6098 37.724 45.2978 37.9459 45.0181C38.4251 44.5135 39.3691 44.8882 39.7515 45.0712C40.4811 45.3989 41.1519 45.8442 41.7372 46.3894L41.7923 46.446C42.4123 47.1013 43.0721 47.718 43.7679 48.2922C44.3435 48.7369 44.9742 49.1053 45.6444 49.3881C42.7812 51.5233 39.1823 52.4232 35.6512 51.8871ZM46.4911 48.7063C45.7311 48.4251 45.0165 48.0343 44.3698 47.5462C43.7046 46.9957 43.0737 46.4053 42.4804 45.778L42.4253 45.722C41.7646 45.096 41.0032 44.5857 40.1731 44.2126C38.9608 43.6309 37.898 43.6855 37.2555 44.363C36.9559 44.7177 36.7173 45.1199 36.5496 45.5528C36.4639 45.7416 36.3805 45.928 36.288 46.0909C36.1176 46.4095 35.8854 46.691 35.6052 46.919C35.4792 47.0067 35.3449 47.0816 35.2041 47.1427C34.9122 47.2626 34.6471 47.4394 34.4245 47.6631C34.1818 47.9662 34.0221 48.3271 33.9611 48.7106C33.9278 48.882 33.8755 49.0491 33.8054 49.209C33.5771 49.5901 33.4464 50.0216 33.425 50.4653C33.432 50.8134 33.5337 51.153 33.7191 51.4476C30.0283 50.3034 27.0115 47.6211 25.4435 44.0896C23.8755 40.558 23.9089 36.5213 25.5352 33.0162L25.5717 32.9371C25.7017 32.5936 25.8959 32.278 26.1438 32.007C26.2319 31.9192 26.3358 31.8486 26.45 31.7991C26.6567 31.7066 26.8801 31.6577 27.1065 31.6554C27.2465 31.6521 27.3854 31.6799 27.5134 31.7368C27.6943 31.8281 27.8227 31.9979 27.8612 32.1968C27.9032 32.6256 27.8234 33.0574 27.6308 33.4427C27.3249 34.0457 27.2544 34.7409 27.4329 35.393C27.7544 36.233 28.6505 36.5857 29.3017 36.7792L29.3975 36.8061C29.9153 36.8891 30.395 37.1295 30.7713 37.4946C30.9413 37.7833 31.0493 38.1043 31.0881 38.4372C31.147 38.8334 31.2683 39.2179 31.4475 39.5762C31.9707 40.5139 33.0522 40.8431 34.024 41.0779C35.0667 41.3312 36.1103 41.5897 37.1549 41.8532C37.365 41.9217 37.5917 41.9188 37.7999 41.8451C38.0428 41.7507 38.2167 41.5338 38.2561 41.2763C38.3654 40.5503 37.3624 39.6773 37.3457 39.6648L37.0936 39.4645C36.499 38.9978 35.9374 38.5569 35.9374 37.8832C35.9317 37.6002 36.0948 37.3409 36.3523 37.2234C36.5311 37.1491 36.6806 37.2033 37.0289 37.3672C37.1248 37.4122 37.2206 37.4572 37.3083 37.4927C37.6806 37.6924 38.1385 37.6347 38.4497 37.349C38.6521 37.123 38.7375 36.8156 38.6806 36.5176C38.6021 35.8789 38.6327 35.6148 38.9547 35.4064C39.3024 35.2153 39.6799 35.0842 40.0712 35.0187C40.3469 34.9597 40.6189 34.8847 40.8858 34.794C41.5927 34.5119 42.2586 34.1364 42.8658 33.6775C42.9617 33.6099 43.0723 33.5457 43.1835 33.4801C43.6964 33.2502 44.1045 32.8364 44.3273 32.3204C44.553 31.6276 44.1893 30.9308 43.2453 30.2499C42.6392 29.8153 41.7201 29.1583 40.6822 29.3074C40.3602 29.3665 40.0476 29.469 39.7531 29.6121C39.5654 29.7006 39.3705 29.7728 39.1704 29.8277C38.9783 29.8721 38.7765 29.8403 38.6074 29.7391C38.5369 29.6882 38.5331 29.6485 38.5317 29.6337C38.5211 29.5091 38.6754 29.3553 38.915 29.1343C39.2102 28.9024 39.4426 28.6003 39.5912 28.2555C39.7883 27.5778 39.4973 26.8531 38.8863 26.4999C38.306 26.1807 37.632 26.0754 36.982 26.2023C36.754 26.2291 36.5245 26.24 36.2949 26.2349C35.7221 26.2038 35.1754 25.9849 34.7395 25.612C40.7039 24.2684 46.8197 27.1421 49.5925 32.591C52.365 38.04 51.0881 44.6756 46.4911 48.7063Z" stroke="black" stroke-width="0.6" mask="url(#path-6-outside-1_28897_2112)"/>
</g>
<defs>
<clipPath id="clip0_28897_2112">
<rect width="58" height="58" fill="black" transform="translate(9 9)"/>
</clipPath>
</defs>
</svg>
