<svg viewBox="0 0 58 59" fill="none" xmlns="http://www.w3.org/2000/svg">
<g clip-path="url(#clip0_67_357)">
<path d="M39.0282 7.88657V2.54228C39.0282 1.7412 38.3788 1.0918 37.5777 1.0918H33.2263C32.4252 1.0918 31.7758 1.7412 31.7758 2.54228V3.39371L25.3074 4.57295C24.5682 4.70704 23.8889 5.06711 23.363 5.60351L18.6315 10.4575C18.2088 10.8825 17.9807 11.4634 18.0013 12.0625C18.0219 12.6615 18.2894 13.2254 18.7403 13.6203C19.1275 13.9618 19.6267 14.1489 20.1429 14.1461C20.6005 14.1448 21.0471 14.0064 21.4252 13.7487L26.0885 10.5924L26.0979 10.6171C26.6042 11.8795 27.9179 12.6223 29.2607 12.4055L31.3 12.0712C31.5941 12.0223 31.8949 12.0329 32.1848 12.1024L33.2865 12.3816C34.2292 12.6027 35.2168 12.5332 36.1192 12.1822C37.8824 11.4878 39.0379 9.78152 39.0282 7.88657ZM37.5777 7.88657C37.5838 9.18541 36.7922 10.3549 35.584 10.8318C34.9605 11.0701 34.2803 11.1181 33.6295 10.9696L32.5329 10.6918C32.0521 10.5746 31.5525 10.5561 31.0643 10.6374L29.0242 10.9717C28.3729 11.0767 27.7328 10.7289 27.4664 10.1254L30.268 9.32762C31.0307 9.10543 31.7256 8.69578 32.2893 8.13605C32.4776 7.95382 32.5531 7.68413 32.4865 7.43061C32.42 7.1771 32.2218 6.97921 31.9682 6.91302C31.7146 6.84683 31.445 6.92263 31.263 7.11128C30.8737 7.49827 30.3934 7.78131 29.8662 7.93443L26.2915 8.94977C25.971 9.02752 25.6639 9.15293 25.3806 9.32181L20.6122 12.5506C20.3405 12.7516 19.9681 12.7466 19.702 12.5382C19.5451 12.4027 19.4525 12.2074 19.4467 12.0001C19.4406 11.8074 19.5149 11.6208 19.652 11.4852L19.6621 11.4743L24.3957 6.61522C24.7123 6.29169 25.1216 6.07451 25.567 5.99369L32.0354 4.81808C32.724 4.69279 33.225 4.09363 33.2263 3.39371V2.54228H37.5777V7.88657Z" fill="black"/>
<path d="M50.2594 40.12L55.6037 40.12C56.4048 40.12 57.0542 39.4706 57.0542 38.6695L57.0542 34.3181C57.0542 33.517 56.4048 32.8676 55.6037 32.8676L54.7523 32.8676L53.573 26.3992C53.439 25.66 53.0789 24.9807 52.5425 24.4548L47.6885 19.7233C47.2635 19.3006 46.6826 19.0725 46.0835 19.0931C45.4845 19.1137 44.9206 19.3812 44.5257 19.8321C44.1842 20.2193 43.9971 20.7185 43.9999 21.2347C44.0011 21.6923 44.1396 22.1389 44.3973 22.517L47.5536 27.1803L47.5289 27.1897C46.2665 27.696 45.5237 29.0097 45.7405 30.3524L46.0748 32.3918C46.1237 32.6859 46.1131 32.9867 46.0436 33.2766L45.7644 34.3783C45.5433 35.321 45.6128 36.3086 45.9638 37.211C46.6582 38.9742 48.3645 40.1297 50.2594 40.12ZM50.2594 38.6695C48.9606 38.6756 47.7911 37.884 47.3142 36.6758C47.0759 36.0523 47.0279 35.3721 47.1764 34.7213L47.4542 33.6247C47.5714 33.1439 47.5899 32.6443 47.5086 32.1561L47.1743 30.116C47.0693 29.4647 47.4171 28.8246 48.0206 28.5582L48.8184 31.3598C49.0406 32.1225 49.4502 32.8174 50.0099 33.381C50.1922 33.5694 50.4619 33.6449 50.7154 33.5783C50.9689 33.5118 51.1668 33.3136 51.233 33.06C51.2992 32.8064 51.2234 32.5368 51.0347 32.3548C50.6477 31.9655 50.3647 31.4852 50.2116 30.958L49.1962 27.3833C49.1185 27.0628 48.9931 26.7557 48.8242 26.4724L45.5954 21.704C45.3944 21.4323 45.3994 21.0599 45.6077 20.7938C45.7433 20.6369 45.9386 20.5443 46.1459 20.5385C46.3386 20.5324 46.5252 20.6067 46.6608 20.7438L46.6717 20.7539L51.5308 25.4875C51.8543 25.8041 52.0715 26.2134 52.1523 26.6588L53.3279 33.1272C53.4532 33.8158 54.0524 34.3168 54.7523 34.3181L55.6037 34.3181L55.6037 38.6695L50.2594 38.6695Z" fill="black"/>
<path d="M20.0001 51.3512L20.0001 56.6955C20.0001 57.4966 20.6495 58.146 21.4506 58.146L25.8021 58.146C26.6031 58.146 27.2525 57.4966 27.2525 56.6955L27.2525 55.8441L33.7209 54.6648C34.4601 54.5308 35.1394 54.1707 35.6653 53.6343L40.3968 48.7803C40.8195 48.3553 41.0476 47.7744 41.027 47.1753C41.0064 46.5763 40.7389 46.0124 40.288 45.6175C39.9008 45.276 39.4016 45.0889 38.8854 45.0917C38.4278 45.0929 37.9812 45.2314 37.6032 45.4891L32.9399 48.6454L32.9304 48.6207C32.4241 47.3583 31.1104 46.6155 29.7677 46.8323L27.7283 47.1666C27.4342 47.2155 27.1334 47.2049 26.8435 47.1354L25.7419 46.8562C24.7991 46.6351 23.8115 46.7046 22.9091 47.0556C21.1459 47.75 19.9905 49.4563 20.0001 51.3512ZM21.4506 51.3512C21.4445 50.0524 22.2362 48.8829 23.4443 48.406C24.0678 48.1677 24.748 48.1197 25.3988 48.2682L26.4954 48.546C26.9762 48.6632 27.4758 48.6817 27.964 48.6004L30.0041 48.2661C30.6554 48.1611 31.2955 48.5089 31.5619 49.1124L28.7603 49.9102C27.9976 50.1324 27.3028 50.542 26.7391 51.1017C26.5507 51.284 26.4753 51.5537 26.5418 51.8072C26.6084 52.0607 26.8065 52.2586 27.0601 52.3248C27.3137 52.391 27.5833 52.3152 27.7653 52.1265C28.1546 51.7395 28.6349 51.4565 29.1621 51.3034L32.7368 50.288C33.0573 50.2103 33.3644 50.0849 33.6477 49.916L38.4161 46.6872C38.6878 46.4862 39.0602 46.4912 39.3263 46.6995C39.4832 46.8351 39.5759 47.0304 39.5816 47.2377C39.5878 47.4304 39.5134 47.617 39.3764 47.7526L39.3662 47.7635L34.6326 52.6226C34.316 52.9461 33.9067 53.1633 33.4613 53.2441L26.9929 54.4197C26.3043 54.545 25.8034 55.1442 25.8021 55.8441L25.8021 56.6955L21.4506 56.6955L21.4506 51.3512Z" fill="black"/>
<path d="M6.79477 20.0919L1.45048 20.0919C0.649401 20.0919 -8.90785e-07 20.7413 -8.55768e-07 21.5424L-6.65561e-07 25.8939C-6.30545e-07 26.6949 0.649401 27.3443 1.45048 27.3443L2.30191 27.3443L3.48115 33.8127C3.61524 34.5519 3.97531 35.2312 4.51171 35.7571L9.36574 40.4886C9.7907 40.9113 10.3716 41.1394 10.9707 41.1188C11.5697 41.0982 12.1336 40.8307 12.5285 40.3798C12.87 39.9926 13.0571 39.4934 13.0543 38.9772C13.0531 38.5196 12.9146 38.073 12.6569 37.6949L9.50064 33.0317L9.52529 33.0222C10.7877 32.5159 11.5305 31.2022 11.3137 29.8595L10.9794 27.8201C10.9305 27.526 10.9411 27.2252 11.0106 26.9353L11.2898 25.8337C11.5109 24.8909 11.4414 23.9033 11.0904 23.0009C10.396 21.2377 8.68972 20.0823 6.79477 20.0919ZM6.79477 21.5424C8.09361 21.5363 9.26307 22.328 9.73996 23.5361C9.97832 24.1596 10.0263 24.8398 9.87776 25.4906L9.59999 26.5872C9.4828 27.068 9.4643 27.5676 9.5456 28.0558L9.87994 30.0959C9.98492 30.7472 9.63714 31.3873 9.03358 31.6537L8.23582 28.8521C8.01363 28.0894 7.60398 27.3946 7.04425 26.8309C6.86203 26.6425 6.59233 26.5671 6.33881 26.6336C6.0853 26.7002 5.88742 26.8983 5.82123 27.1519C5.75503 27.4055 5.83083 27.6751 6.01949 27.8571C6.40647 28.2464 6.68951 28.7267 6.84263 29.2539L7.85797 32.8286C7.93572 33.1491 8.06113 33.4562 8.23002 33.7395L11.4588 38.5079C11.6598 38.7796 11.6548 39.152 11.4465 39.4181C11.3109 39.575 11.1156 39.6676 10.9083 39.6734C10.7156 39.6796 10.529 39.6052 10.3934 39.4682L10.3825 39.458L5.52342 34.7244C5.1999 34.4078 4.98271 33.9985 4.90189 33.5531L3.72628 27.0847C3.60099 26.3961 3.00183 25.8952 2.30191 25.8939L1.45048 25.8939L1.45048 21.5424L6.79477 21.5424Z" fill="black"/>
<mask id="path-5-outside-1_67_357" maskUnits="userSpaceOnUse" x="13.3325" y="14.4238" width="30" height="30" fill="black">
<rect fill="white" x="13.3325" y="14.4238" width="30" height="30"/>
<path d="M42.0603 24.6492C39.9426 19.092 34.6119 15.4208 28.6648 15.4239C27.3421 15.4214 26.0256 15.6037 24.7533 15.9653L24.7341 15.9711C21.203 16.9695 18.1929 19.2914 16.3308 22.4534C16.2979 22.509 16.2765 22.5708 16.2681 22.635C16.0392 22.9404 15.8493 23.2731 15.7026 23.6254L15.6667 23.703C13.605 28.1437 13.95 33.3291 16.5818 37.4576C19.2136 41.586 23.7689 44.0875 28.6648 44.0928C31.9561 44.0956 35.1472 42.9604 37.6973 40.8795C37.9038 40.8972 38.098 40.7786 38.1764 40.5867C38.1914 40.5424 38.1999 40.4963 38.2018 40.4497C42.6426 36.4942 44.1781 30.2064 42.0603 24.6492ZM24.6838 16.9865C25.3173 17.7635 26.2508 18.2351 27.2522 18.2841C27.526 18.2912 27.7999 18.2792 28.0721 18.2481C28.5123 18.1484 28.9734 18.2032 29.3779 18.4034C29.6043 18.5245 29.7293 18.7756 29.6893 19.0292C29.5853 19.2203 29.4427 19.3875 29.2705 19.5204C28.8423 19.8109 28.5843 20.2934 28.5805 20.8108C28.6129 21.133 28.7854 21.4245 29.0521 21.6081C29.4463 21.8715 29.9321 21.9595 30.3937 21.8511C30.6494 21.7841 30.8985 21.6939 31.1379 21.5817C31.3555 21.4747 31.5857 21.3957 31.8231 21.3465C32.4297 21.2612 33.0526 21.6622 33.6885 22.1184C34.0072 22.3489 34.5261 22.7844 34.4188 23.1151C34.3364 23.3685 34.0268 23.5516 33.7 23.7461C33.5678 23.8242 33.4384 23.9009 33.2889 24.0049C32.7596 24.4056 32.1795 24.7345 31.5638 24.9829C31.3311 25.0603 31.0942 25.1243 30.8542 25.1745C30.3543 25.262 29.874 25.4373 29.4354 25.6926C28.5551 26.2609 28.6625 27.1704 28.73 27.7171C28.7142 27.7118 28.6969 27.7055 28.6782 27.6974C28.5963 27.6639 28.5158 27.6255 28.4358 27.5881C27.9403 27.2539 27.2984 27.2282 26.7778 27.5218C26.2571 27.8154 25.947 28.3779 25.9766 28.9749C25.9766 30.112 26.821 30.7752 27.4995 31.3075L27.7352 31.4944C27.885 31.632 28.0197 31.785 28.1372 31.951C27.1741 31.7086 26.2103 31.4701 25.2459 31.2356C24.4351 31.0397 23.6167 30.7981 23.2812 30.1982C23.153 29.9264 23.0666 29.6367 23.0249 29.3391C22.9641 28.8667 22.7981 28.4141 22.539 28.0146C22.0472 27.4657 21.3845 27.099 20.6582 26.9739L20.5705 26.9489C19.8518 26.7352 19.4579 26.4779 19.3295 26.1411C19.2494 25.7038 19.3207 25.2524 19.5317 24.8612C19.8026 24.2977 19.8929 23.6642 19.7904 23.0475C19.6829 22.5745 19.3668 22.1757 18.9308 21.9631C18.6718 21.8425 18.389 21.7817 18.1033 21.7853C18.0424 21.7853 17.9806 21.7882 17.9183 21.793C19.6014 19.5086 21.9726 17.8239 24.6838 16.9865ZM26.6513 42.9789L26.6556 42.9832C26.4676 42.8789 26.2853 42.7647 26.1094 42.6411C25.722 42.3998 25.4572 42.0035 25.3825 41.5533C25.4092 41.2643 25.5027 40.9854 25.6556 40.7387C25.7627 40.5106 25.8419 40.2704 25.8913 40.0233C25.9218 39.799 26.0038 39.5848 26.1309 39.3975C26.2726 39.2683 26.4368 39.1663 26.6154 39.0965C26.8153 39.008 27.0055 38.8988 27.1827 38.7707C27.5651 38.4662 27.8822 38.0877 28.1152 37.6581C28.2278 37.4606 28.3251 37.2455 28.419 37.0352C28.5464 36.7016 28.7242 36.3896 28.9461 36.1099C29.4252 35.6053 30.3692 35.98 30.7516 36.163C31.4813 36.4907 32.1521 36.936 32.7373 37.4812L32.7924 37.5378C33.4125 38.1931 34.0723 38.8098 34.7681 39.384C35.3437 39.8287 35.9744 40.1971 36.6446 40.4799C33.7813 42.6151 30.1825 43.515 26.6513 42.9789ZM37.4912 39.7981C36.7313 39.5169 36.0166 39.1261 35.3699 38.638C34.7048 38.0875 34.0738 37.4971 33.4805 36.8698L33.4254 36.8138C32.7648 36.1878 32.0034 35.6775 31.1733 35.3044C29.961 34.7227 28.8982 34.7773 28.2556 35.4548C27.956 35.8095 27.7175 36.2117 27.5498 36.6446C27.464 36.8334 27.3806 37.0198 27.2882 37.1827C27.1177 37.5013 26.8856 37.7828 26.6053 38.0108C26.4794 38.0985 26.3451 38.1734 26.2043 38.2345C25.9123 38.3544 25.6473 38.5312 25.4247 38.7549C25.182 39.058 25.0223 39.4189 24.9613 39.8024C24.9279 39.9738 24.8757 40.1409 24.8056 40.3007C24.5772 40.6819 24.4466 41.1134 24.4251 41.5571C24.4321 41.9052 24.5339 42.2448 24.7193 42.5394C21.0285 41.3952 18.0117 38.7129 16.4436 35.1814C14.8756 31.6498 14.909 27.6131 16.5354 24.108L16.5718 24.0289C16.7019 23.6854 16.8961 23.3698 17.144 23.0988C17.2321 23.011 17.336 22.9404 17.4502 22.8909C17.6568 22.7984 17.8803 22.7495 18.1067 22.7471C18.2466 22.7439 18.3856 22.7717 18.5135 22.8286C18.6944 22.9199 18.8229 23.0897 18.8614 23.2886C18.9034 23.7174 18.8235 24.1492 18.6309 24.5345C18.3251 25.1375 18.2545 25.8327 18.4331 26.4848C18.7546 27.3248 19.6506 27.6775 20.3018 27.871L20.3977 27.8979C20.9155 27.9809 21.3951 28.2213 21.7715 28.5864C21.9415 28.8751 22.0494 29.1961 22.0882 29.529C22.1471 29.9252 22.2684 30.3097 22.4476 30.668C22.9709 31.6057 24.0524 31.9349 25.0242 32.1697C26.0669 32.423 27.1105 32.6815 28.1551 32.945C28.3651 33.0135 28.5919 33.0106 28.8001 32.9369C29.043 32.8425 29.2169 32.6256 29.2563 32.3681C29.3656 31.6421 28.3626 30.7691 28.3459 30.7566L28.0938 30.5563C27.4991 30.0896 26.9375 29.6487 26.9375 28.975C26.9319 28.692 27.0949 28.4327 27.3525 28.3152C27.5312 28.2409 27.6807 28.2951 28.0291 28.459C28.125 28.504 28.2208 28.549 28.3085 28.5845C28.6808 28.7842 29.1387 28.7265 29.4498 28.4408C29.6523 28.2148 29.7377 27.9074 29.6808 27.6094C29.6022 26.9707 29.6329 26.7066 29.9549 26.4982C30.3026 26.3071 30.68 26.176 31.0714 26.1105C31.347 26.0515 31.619 25.9765 31.886 25.8858C32.5929 25.6037 33.2588 25.2282 33.866 24.7693C33.9618 24.7017 34.0725 24.6375 34.1837 24.5719C34.6965 24.342 35.1047 23.9282 35.3275 23.4122C35.5532 22.7194 35.1894 22.0226 34.2455 21.3417C33.6393 20.9071 32.7203 20.2501 31.6824 20.3992C31.3603 20.4583 31.0478 20.5608 30.7533 20.7039C30.5656 20.7924 30.3706 20.8646 30.1706 20.9195C29.9785 20.9639 29.7767 20.9321 29.6075 20.8309C29.5371 20.78 29.5332 20.7403 29.5318 20.7255C29.5213 20.6009 29.6756 20.4471 29.9152 20.2261C30.2104 19.9942 30.4428 19.6921 30.5913 19.3473C30.7884 18.6696 30.4975 17.9449 29.8864 17.5917C29.3061 17.2725 28.6322 17.1672 27.9822 17.2941C27.7542 17.3209 27.5246 17.3318 27.2951 17.3267C26.7222 17.2956 26.1756 17.0767 25.7397 16.7038C31.7041 15.3602 37.8199 18.2339 40.5926 23.6828C43.3652 29.1318 42.0882 35.7674 37.4912 39.7981Z"/>
</mask>
<path d="M42.0603 24.6492C39.9426 19.092 34.6119 15.4208 28.6648 15.4239C27.3421 15.4214 26.0256 15.6037 24.7533 15.9653L24.7341 15.9711C21.203 16.9695 18.1929 19.2914 16.3308 22.4534C16.2979 22.509 16.2765 22.5708 16.2681 22.635C16.0392 22.9404 15.8493 23.2731 15.7026 23.6254L15.6667 23.703C13.605 28.1437 13.95 33.3291 16.5818 37.4576C19.2136 41.586 23.7689 44.0875 28.6648 44.0928C31.9561 44.0956 35.1472 42.9604 37.6973 40.8795C37.9038 40.8972 38.098 40.7786 38.1764 40.5867C38.1914 40.5424 38.1999 40.4963 38.2018 40.4497C42.6426 36.4942 44.1781 30.2064 42.0603 24.6492ZM24.6838 16.9865C25.3173 17.7635 26.2508 18.2351 27.2522 18.2841C27.526 18.2912 27.7999 18.2792 28.0721 18.2481C28.5123 18.1484 28.9734 18.2032 29.3779 18.4034C29.6043 18.5245 29.7293 18.7756 29.6893 19.0292C29.5853 19.2203 29.4427 19.3875 29.2705 19.5204C28.8423 19.8109 28.5843 20.2934 28.5805 20.8108C28.6129 21.133 28.7854 21.4245 29.0521 21.6081C29.4463 21.8715 29.9321 21.9595 30.3937 21.8511C30.6494 21.7841 30.8985 21.6939 31.1379 21.5817C31.3555 21.4747 31.5857 21.3957 31.8231 21.3465C32.4297 21.2612 33.0526 21.6622 33.6885 22.1184C34.0072 22.3489 34.5261 22.7844 34.4188 23.1151C34.3364 23.3685 34.0268 23.5516 33.7 23.7461C33.5678 23.8242 33.4384 23.9009 33.2889 24.0049C32.7596 24.4056 32.1795 24.7345 31.5638 24.9829C31.3311 25.0603 31.0942 25.1243 30.8542 25.1745C30.3543 25.262 29.874 25.4373 29.4354 25.6926C28.5551 26.2609 28.6625 27.1704 28.73 27.7171C28.7142 27.7118 28.6969 27.7055 28.6782 27.6974C28.5963 27.6639 28.5158 27.6255 28.4358 27.5881C27.9403 27.2539 27.2984 27.2282 26.7778 27.5218C26.2571 27.8154 25.947 28.3779 25.9766 28.9749C25.9766 30.112 26.821 30.7752 27.4995 31.3075L27.7352 31.4944C27.885 31.632 28.0197 31.785 28.1372 31.951C27.1741 31.7086 26.2103 31.4701 25.2459 31.2356C24.4351 31.0397 23.6167 30.7981 23.2812 30.1982C23.153 29.9264 23.0666 29.6367 23.0249 29.3391C22.9641 28.8667 22.7981 28.4141 22.539 28.0146C22.0472 27.4657 21.3845 27.099 20.6582 26.9739L20.5705 26.9489C19.8518 26.7352 19.4579 26.4779 19.3295 26.1411C19.2494 25.7038 19.3207 25.2524 19.5317 24.8612C19.8026 24.2977 19.8929 23.6642 19.7904 23.0475C19.6829 22.5745 19.3668 22.1757 18.9308 21.9631C18.6718 21.8425 18.389 21.7817 18.1033 21.7853C18.0424 21.7853 17.9806 21.7882 17.9183 21.793C19.6014 19.5086 21.9726 17.8239 24.6838 16.9865ZM26.6513 42.9789L26.6556 42.9832C26.4676 42.8789 26.2853 42.7647 26.1094 42.6411C25.722 42.3998 25.4572 42.0035 25.3825 41.5533C25.4092 41.2643 25.5027 40.9854 25.6556 40.7387C25.7627 40.5106 25.8419 40.2704 25.8913 40.0233C25.9218 39.799 26.0038 39.5848 26.1309 39.3975C26.2726 39.2683 26.4368 39.1663 26.6154 39.0965C26.8153 39.008 27.0055 38.8988 27.1827 38.7707C27.5651 38.4662 27.8822 38.0877 28.1152 37.6581C28.2278 37.4606 28.3251 37.2455 28.419 37.0352C28.5464 36.7016 28.7242 36.3896 28.9461 36.1099C29.4252 35.6053 30.3692 35.98 30.7516 36.163C31.4813 36.4907 32.1521 36.936 32.7373 37.4812L32.7924 37.5378C33.4125 38.1931 34.0723 38.8098 34.7681 39.384C35.3437 39.8287 35.9744 40.1971 36.6446 40.4799C33.7813 42.6151 30.1825 43.515 26.6513 42.9789ZM37.4912 39.7981C36.7313 39.5169 36.0166 39.1261 35.3699 38.638C34.7048 38.0875 34.0738 37.4971 33.4805 36.8698L33.4254 36.8138C32.7648 36.1878 32.0034 35.6775 31.1733 35.3044C29.961 34.7227 28.8982 34.7773 28.2556 35.4548C27.956 35.8095 27.7175 36.2117 27.5498 36.6446C27.464 36.8334 27.3806 37.0198 27.2882 37.1827C27.1177 37.5013 26.8856 37.7828 26.6053 38.0108C26.4794 38.0985 26.3451 38.1734 26.2043 38.2345C25.9123 38.3544 25.6473 38.5312 25.4247 38.7549C25.182 39.058 25.0223 39.4189 24.9613 39.8024C24.9279 39.9738 24.8757 40.1409 24.8056 40.3007C24.5772 40.6819 24.4466 41.1134 24.4251 41.5571C24.4321 41.9052 24.5339 42.2448 24.7193 42.5394C21.0285 41.3952 18.0117 38.7129 16.4436 35.1814C14.8756 31.6498 14.909 27.6131 16.5354 24.108L16.5718 24.0289C16.7019 23.6854 16.8961 23.3698 17.144 23.0988C17.2321 23.011 17.336 22.9404 17.4502 22.8909C17.6568 22.7984 17.8803 22.7495 18.1067 22.7471C18.2466 22.7439 18.3856 22.7717 18.5135 22.8286C18.6944 22.9199 18.8229 23.0897 18.8614 23.2886C18.9034 23.7174 18.8235 24.1492 18.6309 24.5345C18.3251 25.1375 18.2545 25.8327 18.4331 26.4848C18.7546 27.3248 19.6506 27.6775 20.3018 27.871L20.3977 27.8979C20.9155 27.9809 21.3951 28.2213 21.7715 28.5864C21.9415 28.8751 22.0494 29.1961 22.0882 29.529C22.1471 29.9252 22.2684 30.3097 22.4476 30.668C22.9709 31.6057 24.0524 31.9349 25.0242 32.1697C26.0669 32.423 27.1105 32.6815 28.1551 32.945C28.3651 33.0135 28.5919 33.0106 28.8001 32.9369C29.043 32.8425 29.2169 32.6256 29.2563 32.3681C29.3656 31.6421 28.3626 30.7691 28.3459 30.7566L28.0938 30.5563C27.4991 30.0896 26.9375 29.6487 26.9375 28.975C26.9319 28.692 27.0949 28.4327 27.3525 28.3152C27.5312 28.2409 27.6807 28.2951 28.0291 28.459C28.125 28.504 28.2208 28.549 28.3085 28.5845C28.6808 28.7842 29.1387 28.7265 29.4498 28.4408C29.6523 28.2148 29.7377 27.9074 29.6808 27.6094C29.6022 26.9707 29.6329 26.7066 29.9549 26.4982C30.3026 26.3071 30.68 26.176 31.0714 26.1105C31.347 26.0515 31.619 25.9765 31.886 25.8858C32.5929 25.6037 33.2588 25.2282 33.866 24.7693C33.9618 24.7017 34.0725 24.6375 34.1837 24.5719C34.6965 24.342 35.1047 23.9282 35.3275 23.4122C35.5532 22.7194 35.1894 22.0226 34.2455 21.3417C33.6393 20.9071 32.7203 20.2501 31.6824 20.3992C31.3603 20.4583 31.0478 20.5608 30.7533 20.7039C30.5656 20.7924 30.3706 20.8646 30.1706 20.9195C29.9785 20.9639 29.7767 20.9321 29.6075 20.8309C29.5371 20.78 29.5332 20.7403 29.5318 20.7255C29.5213 20.6009 29.6756 20.4471 29.9152 20.2261C30.2104 19.9942 30.4428 19.6921 30.5913 19.3473C30.7884 18.6696 30.4975 17.9449 29.8864 17.5917C29.3061 17.2725 28.6322 17.1672 27.9822 17.2941C27.7542 17.3209 27.5246 17.3318 27.2951 17.3267C26.7222 17.2956 26.1756 17.0767 25.7397 16.7038C31.7041 15.3602 37.8199 18.2339 40.5926 23.6828C43.3652 29.1318 42.0882 35.7674 37.4912 39.7981Z" fill="black"/>
<path d="M42.0603 24.6492C39.9426 19.092 34.6119 15.4208 28.6648 15.4239C27.3421 15.4214 26.0256 15.6037 24.7533 15.9653L24.7341 15.9711C21.203 16.9695 18.1929 19.2914 16.3308 22.4534C16.2979 22.509 16.2765 22.5708 16.2681 22.635C16.0392 22.9404 15.8493 23.2731 15.7026 23.6254L15.6667 23.703C13.605 28.1437 13.95 33.3291 16.5818 37.4576C19.2136 41.586 23.7689 44.0875 28.6648 44.0928C31.9561 44.0956 35.1472 42.9604 37.6973 40.8795C37.9038 40.8972 38.098 40.7786 38.1764 40.5867C38.1914 40.5424 38.1999 40.4963 38.2018 40.4497C42.6426 36.4942 44.1781 30.2064 42.0603 24.6492ZM24.6838 16.9865C25.3173 17.7635 26.2508 18.2351 27.2522 18.2841C27.526 18.2912 27.7999 18.2792 28.0721 18.2481C28.5123 18.1484 28.9734 18.2032 29.3779 18.4034C29.6043 18.5245 29.7293 18.7756 29.6893 19.0292C29.5853 19.2203 29.4427 19.3875 29.2705 19.5204C28.8423 19.8109 28.5843 20.2934 28.5805 20.8108C28.6129 21.133 28.7854 21.4245 29.0521 21.6081C29.4463 21.8715 29.9321 21.9595 30.3937 21.8511C30.6494 21.7841 30.8985 21.6939 31.1379 21.5817C31.3555 21.4747 31.5857 21.3957 31.8231 21.3465C32.4297 21.2612 33.0526 21.6622 33.6885 22.1184C34.0072 22.3489 34.5261 22.7844 34.4188 23.1151C34.3364 23.3685 34.0268 23.5516 33.7 23.7461C33.5678 23.8242 33.4384 23.9009 33.2889 24.0049C32.7596 24.4056 32.1795 24.7345 31.5638 24.9829C31.3311 25.0603 31.0942 25.1243 30.8542 25.1745C30.3543 25.262 29.874 25.4373 29.4354 25.6926C28.5551 26.2609 28.6625 27.1704 28.73 27.7171C28.7142 27.7118 28.6969 27.7055 28.6782 27.6974C28.5963 27.6639 28.5158 27.6255 28.4358 27.5881C27.9403 27.2539 27.2984 27.2282 26.7778 27.5218C26.2571 27.8154 25.947 28.3779 25.9766 28.9749C25.9766 30.112 26.821 30.7752 27.4995 31.3075L27.7352 31.4944C27.885 31.632 28.0197 31.785 28.1372 31.951C27.1741 31.7086 26.2103 31.4701 25.2459 31.2356C24.4351 31.0397 23.6167 30.7981 23.2812 30.1982C23.153 29.9264 23.0666 29.6367 23.0249 29.3391C22.9641 28.8667 22.7981 28.4141 22.539 28.0146C22.0472 27.4657 21.3845 27.099 20.6582 26.9739L20.5705 26.9489C19.8518 26.7352 19.4579 26.4779 19.3295 26.1411C19.2494 25.7038 19.3207 25.2524 19.5317 24.8612C19.8026 24.2977 19.8929 23.6642 19.7904 23.0475C19.6829 22.5745 19.3668 22.1757 18.9308 21.9631C18.6718 21.8425 18.389 21.7817 18.1033 21.7853C18.0424 21.7853 17.9806 21.7882 17.9183 21.793C19.6014 19.5086 21.9726 17.8239 24.6838 16.9865ZM26.6513 42.9789L26.6556 42.9832C26.4676 42.8789 26.2853 42.7647 26.1094 42.6411C25.722 42.3998 25.4572 42.0035 25.3825 41.5533C25.4092 41.2643 25.5027 40.9854 25.6556 40.7387C25.7627 40.5106 25.8419 40.2704 25.8913 40.0233C25.9218 39.799 26.0038 39.5848 26.1309 39.3975C26.2726 39.2683 26.4368 39.1663 26.6154 39.0965C26.8153 39.008 27.0055 38.8988 27.1827 38.7707C27.5651 38.4662 27.8822 38.0877 28.1152 37.6581C28.2278 37.4606 28.3251 37.2455 28.419 37.0352C28.5464 36.7016 28.7242 36.3896 28.9461 36.1099C29.4252 35.6053 30.3692 35.98 30.7516 36.163C31.4813 36.4907 32.1521 36.936 32.7373 37.4812L32.7924 37.5378C33.4125 38.1931 34.0723 38.8098 34.7681 39.384C35.3437 39.8287 35.9744 40.1971 36.6446 40.4799C33.7813 42.6151 30.1825 43.515 26.6513 42.9789ZM37.4912 39.7981C36.7313 39.5169 36.0166 39.1261 35.3699 38.638C34.7048 38.0875 34.0738 37.4971 33.4805 36.8698L33.4254 36.8138C32.7648 36.1878 32.0034 35.6775 31.1733 35.3044C29.961 34.7227 28.8982 34.7773 28.2556 35.4548C27.956 35.8095 27.7175 36.2117 27.5498 36.6446C27.464 36.8334 27.3806 37.0198 27.2882 37.1827C27.1177 37.5013 26.8856 37.7828 26.6053 38.0108C26.4794 38.0985 26.3451 38.1734 26.2043 38.2345C25.9123 38.3544 25.6473 38.5312 25.4247 38.7549C25.182 39.058 25.0223 39.4189 24.9613 39.8024C24.9279 39.9738 24.8757 40.1409 24.8056 40.3007C24.5772 40.6819 24.4466 41.1134 24.4251 41.5571C24.4321 41.9052 24.5339 42.2448 24.7193 42.5394C21.0285 41.3952 18.0117 38.7129 16.4436 35.1814C14.8756 31.6498 14.909 27.6131 16.5354 24.108L16.5718 24.0289C16.7019 23.6854 16.8961 23.3698 17.144 23.0988C17.2321 23.011 17.336 22.9404 17.4502 22.8909C17.6568 22.7984 17.8803 22.7495 18.1067 22.7471C18.2466 22.7439 18.3856 22.7717 18.5135 22.8286C18.6944 22.9199 18.8229 23.0897 18.8614 23.2886C18.9034 23.7174 18.8235 24.1492 18.6309 24.5345C18.3251 25.1375 18.2545 25.8327 18.4331 26.4848C18.7546 27.3248 19.6506 27.6775 20.3018 27.871L20.3977 27.8979C20.9155 27.9809 21.3951 28.2213 21.7715 28.5864C21.9415 28.8751 22.0494 29.1961 22.0882 29.529C22.1471 29.9252 22.2684 30.3097 22.4476 30.668C22.9709 31.6057 24.0524 31.9349 25.0242 32.1697C26.0669 32.423 27.1105 32.6815 28.1551 32.945C28.3651 33.0135 28.5919 33.0106 28.8001 32.9369C29.043 32.8425 29.2169 32.6256 29.2563 32.3681C29.3656 31.6421 28.3626 30.7691 28.3459 30.7566L28.0938 30.5563C27.4991 30.0896 26.9375 29.6487 26.9375 28.975C26.9319 28.692 27.0949 28.4327 27.3525 28.3152C27.5312 28.2409 27.6807 28.2951 28.0291 28.459C28.125 28.504 28.2208 28.549 28.3085 28.5845C28.6808 28.7842 29.1387 28.7265 29.4498 28.4408C29.6523 28.2148 29.7377 27.9074 29.6808 27.6094C29.6022 26.9707 29.6329 26.7066 29.9549 26.4982C30.3026 26.3071 30.68 26.176 31.0714 26.1105C31.347 26.0515 31.619 25.9765 31.886 25.8858C32.5929 25.6037 33.2588 25.2282 33.866 24.7693C33.9618 24.7017 34.0725 24.6375 34.1837 24.5719C34.6965 24.342 35.1047 23.9282 35.3275 23.4122C35.5532 22.7194 35.1894 22.0226 34.2455 21.3417C33.6393 20.9071 32.7203 20.2501 31.6824 20.3992C31.3603 20.4583 31.0478 20.5608 30.7533 20.7039C30.5656 20.7924 30.3706 20.8646 30.1706 20.9195C29.9785 20.9639 29.7767 20.9321 29.6075 20.8309C29.5371 20.78 29.5332 20.7403 29.5318 20.7255C29.5213 20.6009 29.6756 20.4471 29.9152 20.2261C30.2104 19.9942 30.4428 19.6921 30.5913 19.3473C30.7884 18.6696 30.4975 17.9449 29.8864 17.5917C29.3061 17.2725 28.6322 17.1672 27.9822 17.2941C27.7542 17.3209 27.5246 17.3318 27.2951 17.3267C26.7222 17.2956 26.1756 17.0767 25.7397 16.7038C31.7041 15.3602 37.8199 18.2339 40.5926 23.6828C43.3652 29.1318 42.0882 35.7674 37.4912 39.7981Z" stroke="black" stroke-width="0.6" mask="url(#path-5-outside-1_67_357)"/>
</g>
<defs>
<clipPath id="clip0_67_357">
<rect width="58" height="58" fill="white" transform="translate(0 0.0917969)"/>
</clipPath>
</defs>
</svg>
