<svg viewBox="0 0 43 43" fill="none" xmlns="http://www.w3.org/2000/svg">
<path d="M21.171 11.3074C18.8726 11.0263 17.5722 10.7662 17.5722 8.84733C17.5722 7.15338 19.6246 6.38723 21.0866 6.38723C23.7436 6.38723 24.6503 7.87032 24.6925 7.94764C24.818 8.16737 25.0513 8.30342 25.3043 8.30454C25.5574 8.30567 25.7918 8.1717 25.9193 7.9531C26.0469 7.7345 26.0481 7.46448 25.9225 7.24475C25.8733 7.16041 24.7909 5.26261 21.7895 5.00255V3.57569C21.7895 3.1875 21.4748 2.8728 21.0866 2.8728C20.6985 2.8728 20.3838 3.1875 20.3838 3.57569V5.02363C18.2259 5.26261 16.1664 6.58404 16.1664 8.84733C16.1664 12.1017 18.978 12.4531 21.0023 12.7062C23.3007 12.9944 24.6011 13.2544 24.6011 15.1733C24.6011 18.6245 18.4579 17.7388 17.3684 16.7829C17.0928 16.5073 16.6459 16.5073 16.3703 16.7829C16.0947 17.0585 16.0947 17.5054 16.3703 17.781C16.4898 17.9005 17.5722 18.8775 20.3838 19.0392V20.445C20.3838 20.8331 20.6985 21.1478 21.0866 21.1478C21.4748 21.1478 21.7895 20.8331 21.7895 20.445V19.0392C24.8822 18.7932 26.0068 16.9305 26.0068 15.2014C26.0068 11.9189 23.1953 11.5675 21.171 11.3074Z" fill="black"/>
<path d="M21.7896 41.5316V33.7998C21.7896 33.4116 21.4749 33.0969 21.0867 33.0969C20.6985 33.0969 20.3838 33.4116 20.3838 33.7998V41.5316C20.3838 41.9197 20.6985 42.2344 21.0867 42.2344C21.4749 42.2344 21.7896 41.9197 21.7896 41.5316Z" fill="black"/>
<path d="M25.3037 38.0169V28.1765C25.3037 27.7883 24.989 27.4736 24.6008 27.4736C24.2126 27.4736 23.8979 27.7883 23.8979 28.1765V38.0169C23.8979 38.4051 24.2126 38.7198 24.6008 38.7198C24.989 38.7198 25.3037 38.4051 25.3037 38.0169Z" fill="black"/>
<path d="M18.2749 38.0171V31.6912C18.2749 31.303 17.9602 30.9883 17.572 30.9883C17.1838 30.9883 16.8691 31.303 16.8691 31.6912V38.0171C16.8691 38.4053 17.1838 38.72 17.572 38.72C17.9602 38.72 18.2749 38.4053 18.2749 38.0171Z" fill="black"/>
<path d="M31.9391 7.0409C29.9876 2.80526 25.7502 0.092041 21.0866 0.092041C16.423 0.092041 12.1855 2.80526 10.234 7.0409C1.78533 9.90164 0 14.3579 0 17.6334V39.4228C0 40.9756 1.25877 42.2344 2.81154 42.2344C4.36432 42.2344 5.62309 40.9756 5.62309 39.4228V37.3142H6.32597C7.25806 37.3142 8.15197 36.9439 8.81105 36.2848C9.47013 35.6258 9.8404 34.7318 9.8404 33.7998V32.394H10.5433C12.4843 32.394 14.0577 30.8205 14.0577 28.8796C14.0577 26.3421 13.889 23.8961 14.7606 22.1459C18.616 24.5644 23.515 24.5644 27.3704 22.1459C28.256 23.882 28.0733 26.1945 28.0733 28.8796C28.0733 30.8205 29.6467 32.394 31.5877 32.394H32.2906V33.7998C32.2906 35.7407 33.864 37.3142 35.805 37.3142H36.5079V39.4228C36.5079 40.9756 37.7667 42.2344 39.3194 42.2344C40.8722 42.2344 42.131 40.9756 42.131 39.4228V17.6334C42.1731 14.3579 40.3878 9.90164 31.9391 7.0409ZM12.6519 28.8796C12.6519 30.0441 11.7079 30.9882 10.5433 30.9882H9.8404V19.742C9.8404 19.3539 9.52571 19.0392 9.13752 19.0392C8.74932 19.0392 8.43463 19.3539 8.43463 19.742V33.7998C8.43463 34.9643 7.49055 35.9084 6.32597 35.9084H5.62309V23.2565C5.62309 22.8683 5.30839 22.5536 4.9202 22.5536C4.53201 22.5536 4.21731 22.8683 4.21731 23.2565V39.4228C4.21731 40.1992 3.58793 40.8286 2.81154 40.8286C2.03516 40.8286 1.40577 40.1992 1.40577 39.4228V17.6334C1.40577 13.8027 4.16108 10.8224 9.60142 8.76297C8.27969 13.3797 9.86598 18.3382 13.6219 21.3306C12.4411 23.4744 12.6519 26.2789 12.6519 28.8796ZM10.5433 12.0103C10.5433 6.1874 15.2637 1.46701 21.0866 1.46701C26.9095 1.46701 31.6299 6.1874 31.6299 12.0103C31.6299 17.8332 26.9095 22.5536 21.0866 22.5536C18.2903 22.5536 15.6086 21.4428 13.6313 19.4655C11.6541 17.4883 10.5433 14.8066 10.5433 12.0103ZM40.7674 39.4228C40.7674 40.1992 40.138 40.8286 39.3616 40.8286C38.5852 40.8286 37.9558 40.1992 37.9558 39.4228V23.2565C37.9558 22.8683 37.6411 22.5536 37.2529 22.5536C36.8648 22.5536 36.5501 22.8683 36.5501 23.2565V35.9084H35.8472C34.6826 35.9084 33.7385 34.9643 33.7385 33.7998V19.742C33.7385 19.3539 33.4238 19.0392 33.0356 19.0392C32.6474 19.0392 32.3327 19.3539 32.3327 19.742V30.9882H31.6299C30.4653 30.9882 29.5212 30.0441 29.5212 28.8796C29.5212 26.2929 29.7321 23.4603 28.5512 21.3306C32.3088 18.3394 33.8954 13.3797 32.5717 8.76297C38.0121 10.8224 40.7674 13.8027 40.7674 17.6334V39.4228Z" fill="black"/>
</svg>
