<svg width="76" height="76" viewBox="0 0 76 76" fill="none" xmlns="http://www.w3.org/2000/svg">
<rect width="76" height="76"/>
<path d="M38.1709 28.2154C35.8725 27.9342 34.5722 27.6742 34.5722 25.7553C34.5722 24.0613 36.6246 23.2952 38.0866 23.2952C40.7435 23.2952 41.6502 24.7783 41.6924 24.8556C41.818 25.0753 42.0512 25.2114 42.3043 25.2125C42.5573 25.2136 42.7918 25.0797 42.9193 24.8611C43.0468 24.6425 43.048 24.3724 42.9224 24.1527C42.8732 24.0684 41.7908 22.1706 38.7895 21.9105V20.4836C38.7895 20.0955 38.4748 19.7808 38.0866 19.7808C37.6984 19.7808 37.3837 20.0955 37.3837 20.4836V21.9316C35.2258 22.1706 33.1664 23.492 33.1664 25.7553C33.1664 29.0097 35.9779 29.3611 38.0022 29.6141C40.3007 29.9023 41.601 30.1624 41.601 32.0813C41.601 35.5324 35.4578 34.6468 34.3683 33.6909C34.0927 33.4153 33.6458 33.4153 33.3702 33.6909C33.0946 33.9665 33.0946 34.4134 33.3702 34.689C33.4897 34.8085 34.5722 35.7855 37.3837 35.9471V37.3529C37.3837 37.7411 37.6984 38.0558 38.0866 38.0558C38.4748 38.0558 38.7895 37.7411 38.7895 37.3529V35.9471C41.8822 35.7011 43.0068 33.8385 43.0068 32.1094C43.0068 28.8269 40.1952 28.4755 38.1709 28.2154Z" fill="black"/>
<path d="M38.7894 58.4395V50.7078C38.7894 50.3196 38.4747 50.0049 38.0866 50.0049C37.6984 50.0049 37.3837 50.3196 37.3837 50.7078V58.4395C37.3837 58.8277 37.6984 59.1424 38.0866 59.1424C38.4747 59.1424 38.7894 58.8277 38.7894 58.4395Z" fill="black"/>
<path d="M42.3039 54.9251V45.0847C42.3039 44.6965 41.9892 44.3818 41.601 44.3818C41.2128 44.3818 40.8981 44.6965 40.8981 45.0847V54.9251C40.8981 55.3133 41.2128 55.628 41.601 55.628C41.9892 55.628 42.3039 55.3133 42.3039 54.9251Z" fill="black"/>
<path d="M35.275 54.9249V48.5989C35.275 48.2107 34.9603 47.896 34.5721 47.896C34.184 47.896 33.8693 48.2107 33.8693 48.5989V54.9249C33.8693 55.313 34.184 55.6277 34.5721 55.6277C34.9603 55.6277 35.275 55.313 35.275 54.9249Z" fill="black"/>
<path d="M48.9391 23.9489C46.9876 19.7132 42.7502 17 38.0866 17C33.423 17 29.1855 19.7132 27.234 23.9489C18.7853 26.8096 17 31.2659 17 34.5413V56.3308C17 57.8836 18.2588 59.1423 19.8115 59.1423C21.3643 59.1423 22.6231 57.8836 22.6231 56.3308V54.2221H23.326C24.2581 54.2221 25.152 53.8519 25.811 53.1928C26.4701 52.5337 26.8404 51.6398 26.8404 50.7077V49.3019H27.5433C29.4843 49.3019 31.0577 47.7285 31.0577 45.7875C31.0577 43.2501 30.889 40.8041 31.7606 39.0539C35.616 41.4723 40.515 41.4723 44.3704 39.0539C45.256 40.79 45.0733 43.1025 45.0733 45.7875C45.0733 47.7285 46.6467 49.3019 48.5877 49.3019H49.2906V50.7077C49.2906 52.6487 50.864 54.2221 52.805 54.2221H53.5079V56.3308C53.5079 57.8836 54.7667 59.1423 56.3194 59.1423C57.8722 59.1423 59.131 57.8836 59.131 56.3308V34.5413C59.1731 31.2659 57.3878 26.8096 48.9391 23.9489ZM29.6519 45.7875C29.6519 46.9521 28.7079 47.8962 27.5433 47.8962H26.8404V36.65C26.8404 36.2618 26.5257 35.9471 26.1375 35.9471C25.7493 35.9471 25.4346 36.2618 25.4346 36.65V50.7077C25.4346 51.8723 24.4906 52.8164 23.326 52.8164H22.6231V40.1644C22.6231 39.7762 22.3084 39.4615 21.9202 39.4615C21.532 39.4615 21.2173 39.7762 21.2173 40.1644V56.3308C21.2173 57.1072 20.5879 57.7366 19.8115 57.7366C19.0352 57.7366 18.4058 57.1072 18.4058 56.3308V34.5413C18.4058 30.7106 21.1611 27.7304 26.6014 25.6709C25.2797 30.2877 26.866 35.2462 30.6219 38.2385C29.4411 40.3823 29.6519 43.1868 29.6519 45.7875ZM27.5433 28.9183C27.5433 23.0954 32.2637 18.375 38.0866 18.375C43.9095 18.375 48.6299 23.0954 48.6299 28.9183C48.6299 34.7412 43.9095 39.4615 38.0866 39.4615C35.2903 39.4615 32.6086 38.3507 30.6313 36.3735C28.6541 34.3962 27.5433 31.7145 27.5433 28.9183ZM57.7674 56.3308C57.7674 57.1072 57.138 57.7366 56.3616 57.7366C55.5852 57.7366 54.9558 57.1072 54.9558 56.3308V40.1644C54.9558 39.7762 54.6411 39.4615 54.2529 39.4615C53.8648 39.4615 53.5501 39.7762 53.5501 40.1644V52.8164H52.8472C51.6826 52.8164 50.7385 51.8723 50.7385 50.7077V36.65C50.7385 36.2618 50.4238 35.9471 50.0356 35.9471C49.6474 35.9471 49.3327 36.2618 49.3327 36.65V47.8962H48.6299C47.4653 47.8962 46.5212 46.9521 46.5212 45.7875C46.5212 43.2009 46.7321 40.3683 45.5512 38.2385C49.3088 35.2473 50.8954 30.2877 49.5717 25.6709C55.0121 27.7304 57.7674 30.7106 57.7674 34.5413V56.3308Z" fill="black"/>
<defs>
</defs>
</svg>
