<svg width="76" height="76" viewBox="0 0 76 76" fill="none" xmlns="http://www.w3.org/2000/svg">
<rect width="76" height="76"/>
<g clip-path="url(#clip0_28897_2113)">
<path d="M38 41.3333C38.3189 41.3336 38.6314 41.2441 38.9017 41.075C48.7867 34.8558 51.4475 24.9791 52.1517 19.6441C52.2804 18.7373 51.6501 17.8977 50.7433 17.7683C47.4417 17.2791 42.7258 16.1133 39.0083 13.3375C38.4115 12.8862 37.5876 12.8862 36.9908 13.3375C33.275 16.1125 28.5583 17.2791 25.2567 17.7683C24.3499 17.8977 23.7195 18.7373 23.8483 19.6441C24.5525 24.9775 27.2125 34.8558 37.0983 41.075C37.3685 41.2444 37.6811 41.334 38 41.3333ZM25.5 19.4166C28.9917 18.8991 33.9925 17.655 38.01 14.6716C42.0067 17.6566 47.0075 18.9 50.5 19.4258C49.8333 24.4708 47.3233 33.8075 38.0142 39.6666C38.0047 39.6695 37.9945 39.6695 37.985 39.6666C28.6767 33.8075 26.1667 24.4708 25.5 19.4166Z" fill="black"/>
<path d="M39.0175 36.9415C43.6514 33.3093 46.905 28.2028 48.2392 22.4682C48.3485 22.0343 48.2788 21.5747 48.0458 21.1927C47.8127 20.8108 47.4358 20.5386 47 20.4374C44.1368 19.7878 41.3889 18.7075 38.85 17.2332C38.3262 16.9203 37.6729 16.9203 37.1492 17.2332C34.6105 18.7073 31.8628 19.7876 29 20.4374C28.5649 20.5393 28.189 20.8117 27.9567 21.1934C27.7243 21.5751 27.655 22.0341 27.7642 22.4674C29.0967 28.2018 32.3489 33.3087 36.9817 36.9415C37.5827 37.4004 38.4164 37.4004 39.0175 36.9415ZM29.385 22.059C32.4123 21.3723 35.3173 20.2283 38 18.6665C40.6879 20.228 43.5959 21.3753 46.6258 22.0699C45.3794 27.4386 42.3328 32.2188 37.9925 35.6157C33.6587 32.213 30.621 27.4286 29.385 22.059Z" fill="black"/>
<path d="M33.6067 24.3581C33.4981 24.0793 33.2483 23.88 32.9523 23.8362C32.6563 23.7923 32.3595 23.9105 32.1747 24.1459C31.9899 24.3812 31.9455 24.6976 32.0583 24.9748C32.9203 27.1674 34.1211 29.2111 35.6167 31.0314C35.9103 31.3861 36.4358 31.4355 36.7904 31.1419C37.145 30.8482 37.1945 30.3227 36.9008 29.9681C35.5164 28.2817 34.4048 26.3888 33.6067 24.3581Z" fill="black"/>
<path d="M18.0117 41.3233C18.095 44.6267 18.73 46.99 20.1883 49.1433C18.6426 49.0905 17.1535 49.7282 16.125 50.8833C15.5926 51.4867 15.6485 52.4071 16.25 52.9417L18.1175 54.6033C20.2348 56.4838 23.4667 56.328 25.3933 54.2525C27.3528 55.5732 29.4727 56.6387 31.7017 57.4233C30.4205 58.4055 29.6685 59.9273 29.6667 61.5416C29.6676 62.3467 30.32 62.9991 31.125 63H33.625C35.3953 62.9982 37.0433 62.097 38 60.6075C38.9567 62.097 40.6047 62.9982 42.375 63H44.875C45.68 62.9991 46.3324 62.3467 46.3333 61.5416C46.3323 59.9279 45.5816 58.4062 44.3017 57.4233C46.5304 56.64 48.6503 55.5759 50.61 54.2566C52.5366 56.3321 55.7685 56.488 57.8858 54.6075L59.75 52.9417C60.3508 52.4058 60.4048 51.4849 59.8708 50.8825C58.8428 49.7272 57.3539 49.0894 55.8083 49.1425C57.2667 46.9875 57.8983 44.6267 57.985 41.3233C60.7815 41.2186 62.9957 38.9234 63 36.125V33.625C62.9991 32.82 62.3467 32.1676 61.5417 32.1667C60.2262 32.1669 58.9601 32.6674 58 33.5667V31.3333C58 30.8731 57.6269 30.5 57.1667 30.5C56.7064 30.5 56.3333 30.8731 56.3333 31.3333V33.5667C55.3732 32.6674 54.1071 32.1669 52.7917 32.1667C51.9866 32.1676 51.3342 32.82 51.3333 33.625V36.125C51.3379 38.9133 53.5367 41.2039 56.3225 41.3225C56.3409 43.1817 55.9788 45.0251 55.2583 46.7392C55.0752 45.8499 54.6613 45.0245 54.0583 44.3458C53.8016 44.0556 53.4394 43.8803 53.0525 43.8592C52.6663 43.8331 52.2861 43.9651 51.9992 44.225L50.1308 45.8867C48.0817 47.7163 47.8046 50.8223 49.4975 52.9858C48.3194 53.7541 47.0895 54.4399 45.8167 55.0383C46.1564 54.3369 46.333 53.5677 46.3333 52.7883C46.3306 51.9846 45.6787 51.3342 44.875 51.3333H42.375C40.6047 51.3351 38.9567 52.2363 38 53.7258C37.0433 52.2363 35.3953 51.3351 33.625 51.3333H31.125C30.32 51.3342 29.6676 51.9866 29.6667 52.7917C29.667 53.571 29.8436 54.3402 30.1833 55.0416C28.9096 54.4422 27.6788 53.7553 26.5 52.9858C28.1929 50.8223 27.9158 47.7163 25.8667 45.8867L24 44.2258C23.7129 43.9662 23.3329 43.834 22.9467 43.8592C22.5595 43.8801 22.1969 44.0554 21.94 44.3458C21.337 45.0245 20.9232 45.8499 20.74 46.7392C20.0195 45.0251 19.6574 43.1817 19.6758 41.3225C22.4623 41.2047 24.662 38.9139 24.6667 36.125V33.625C24.6657 32.82 24.0134 32.1676 23.2083 32.1667C21.8929 32.1669 20.6268 32.6674 19.6667 33.5667V31.3333C19.6667 30.8731 19.2936 30.5 18.8333 30.5C18.3731 30.5 18 30.8731 18 31.3333V33.5667C17.0399 32.6674 15.7738 32.1669 14.4583 32.1667C13.6533 32.1676 13.0009 32.82 13 33.625V36.125C13.0042 38.9222 15.2165 41.2168 18.0117 41.3233ZM19.2225 53.3583L17.5142 51.8383C18.8422 50.5168 20.9689 50.4555 22.3708 51.6983L24.0792 53.2183C22.7513 54.5402 20.6243 54.6016 19.2225 53.3583ZM33.625 61.3333H31.3392C31.4515 59.4623 33.0006 58.0019 34.875 58H37.1608C37.0485 59.871 35.4994 61.3314 33.625 61.3333ZM42.375 61.3333C40.5006 61.3314 38.9515 59.871 38.8392 58H41.125C42.9994 58.0019 44.5485 59.4623 44.6608 61.3333H42.375ZM58.4858 51.8383L56.7775 53.3583C55.3757 54.6016 53.2487 54.5402 51.9208 53.2183L53.6292 51.6983C55.0308 50.4547 57.1581 50.516 58.4858 51.8383ZM61.3333 33.8392V36.125C61.331 37.9992 59.8708 39.5481 58 39.6608V37.375C58.0023 35.5008 59.4625 33.9519 61.3333 33.8392ZM53 36.125V33.8392C54.8708 33.9519 56.331 35.5008 56.3333 37.375V39.6608C54.4625 39.5481 53.0023 37.9992 53 36.125ZM51.2392 47.1317L52.9475 45.6133C54.0932 47.0711 53.9217 49.1655 52.5542 50.4175C52.5358 50.4358 52.52 50.4533 52.5017 50.4708L50.8133 51.9708C49.6545 50.4986 49.841 48.3789 51.2392 47.1317ZM42.375 53H44.6608C44.5485 54.871 42.9994 56.3314 41.125 56.3333H38.8392C38.9515 54.4623 40.5006 53.0019 42.375 53ZM31.3392 53H33.625C35.4994 53.0019 37.0485 54.4623 37.1608 56.3333H34.875C33.0006 56.3314 31.4515 54.871 31.3392 53ZM23.0525 45.6133L24.7608 47.1317C26.16 48.3791 26.3466 50.5 25.1867 51.9725L23.4983 50.4725C23.48 50.455 23.4642 50.4375 23.4458 50.4192C22.0773 49.167 21.9058 47.0714 23.0525 45.6133ZM23 33.8392V36.125C22.9977 37.9992 21.5375 39.5481 19.6667 39.6608V37.375C19.669 35.5008 21.1292 33.9519 23 33.8392ZM14.6667 33.8392C16.5375 33.9519 17.9977 35.5008 18 37.375V39.6608C16.1292 39.5481 14.669 37.9992 14.6667 36.125V33.8392Z" fill="black"/>
</g>
<defs>
<clipPath id="clip0_28897_2113">
<rect width="50" height="50" fill="black" transform="translate(13 13)"/>
</clipPath>
</defs>
</svg>
