<svg viewBox="0 0 50 51" fill="none" xmlns="http://www.w3.org/2000/svg">
<path d="M24.9999 28.4251C25.3188 28.4254 25.6313 28.3359 25.9016 28.1668C35.7866 21.9476 38.4474 12.0709 39.1516 6.73594C39.2804 5.82912 38.65 4.98948 37.7432 4.86011C34.4416 4.37094 29.7257 3.20511 26.0082 0.429274C25.4114 -0.0219976 24.5875 -0.0219976 23.9907 0.429274C20.2749 3.20427 15.5582 4.37094 12.2566 4.86011C11.3498 4.98948 10.7194 5.82912 10.8482 6.73594C11.5524 12.0693 14.2124 21.9476 24.0982 28.1668C24.3684 28.3362 24.681 28.4258 24.9999 28.4251ZM12.4999 6.50844C15.9916 5.99094 20.9924 4.74677 25.0099 1.76344C29.0066 4.74844 34.0074 5.99178 37.4999 6.51761C36.8332 11.5626 34.3232 20.8993 25.0141 26.7584C25.0046 26.7613 24.9944 26.7613 24.9849 26.7584C15.6766 20.8993 13.1666 11.5626 12.4999 6.50844Z" fill="black"/>
<path d="M26.0172 24.0333C30.6511 20.4011 33.9048 15.2946 35.2389 9.55999C35.3483 9.12611 35.2786 8.66648 35.0455 8.28452C34.8125 7.90256 34.4356 7.63035 33.9997 7.52915C31.1366 6.87963 28.3886 5.79927 25.8497 4.32499C25.326 4.01211 24.6727 4.01211 24.1489 4.32499C21.6102 5.79907 18.8626 6.87943 15.9998 7.52915C15.5647 7.63111 15.1888 7.9035 14.9564 8.28518C14.7241 8.66686 14.6547 9.12586 14.7639 9.55915C16.0964 15.2936 19.3486 20.4005 23.9814 24.0333C24.5825 24.4922 25.4162 24.4922 26.0172 24.0333ZM16.3848 9.15082C19.4121 8.4641 22.3171 7.32014 24.9997 5.75832C27.6877 7.31978 30.5956 8.46711 33.6256 9.16165C32.3792 14.5304 29.3325 19.3106 24.9922 22.7075C20.6585 19.3047 17.6208 14.5204 16.3848 9.15082Z" fill="black"/>
<path d="M20.6065 11.4499C20.4979 11.1711 20.2481 10.9718 19.9521 10.928C19.6561 10.8841 19.3593 11.0023 19.1745 11.2377C18.9897 11.473 18.9453 11.7894 19.0581 12.0666C19.9201 14.2592 21.1208 16.3029 22.6165 18.1232C22.9101 18.4779 23.4356 18.5273 23.7902 18.2337C24.1448 17.94 24.1943 17.4145 23.9006 17.0599C22.5161 15.3735 21.4046 13.4806 20.6065 11.4499Z" fill="black"/>
<path d="M5.01167 28.4151C5.095 31.7185 5.73 34.0818 7.18833 36.2351C5.64258 36.1823 4.15347 36.82 3.125 37.9751C2.59264 38.5785 2.64853 39.4989 3.25 40.0334L5.1175 41.6951C7.23485 43.5756 10.4667 43.4198 12.3933 41.3443C14.3528 42.665 16.4727 43.7305 18.7017 44.5151C17.4205 45.4973 16.6685 47.0191 16.6667 48.6334C16.6676 49.4385 17.32 50.0909 18.125 50.0918H20.625C22.3953 50.09 24.0433 49.1888 25 47.6993C25.9567 49.1888 27.6047 50.09 29.375 50.0918H31.875C32.68 50.0909 33.3324 49.4385 33.3333 48.6334C33.3323 47.0197 32.5816 45.498 31.3017 44.5151C33.5304 43.7318 35.6503 42.6677 37.61 41.3484C39.5366 43.4239 42.7685 43.5798 44.8858 41.6993L46.75 40.0334C47.3508 39.4976 47.4048 38.5767 46.8708 37.9743C45.8428 36.819 44.3539 36.1812 42.8083 36.2343C44.2667 34.0793 44.8983 31.7185 44.985 28.4151C47.7815 28.3104 49.9957 26.0152 50 23.2168V20.7168C49.9991 19.9118 49.3467 19.2594 48.5417 19.2585C47.2262 19.2587 45.9601 19.7592 45 20.6585V18.4251C45 17.9649 44.6269 17.5918 44.1667 17.5918C43.7064 17.5918 43.3333 17.9649 43.3333 18.4251V20.6585C42.3732 19.7592 41.1071 19.2587 39.7917 19.2585C38.9866 19.2594 38.3342 19.9118 38.3333 20.7168V23.2168C38.3379 26.0051 40.5367 28.2957 43.3225 28.4143C43.3409 30.2735 42.9788 32.1169 42.2583 33.831C42.0752 32.9417 41.6613 32.1163 41.0583 31.4376C40.8016 31.1474 40.4394 30.9721 40.0525 30.951C39.6663 30.9249 39.2861 31.0569 38.9992 31.3168L37.1308 32.9785C35.0817 34.8081 34.8046 37.9141 36.4975 40.0776C35.3194 40.8459 34.0895 41.5317 32.8167 42.1301C33.1564 41.4287 33.333 40.6595 33.3333 39.8801C33.3306 39.0764 32.6787 38.426 31.875 38.4251H29.375C27.6047 38.4269 25.9567 39.3281 25 40.8176C24.0433 39.3281 22.3953 38.4269 20.625 38.4251H18.125C17.32 38.426 16.6676 39.0784 16.6667 39.8834C16.667 40.6628 16.8436 41.432 17.1833 42.1334C15.9096 41.534 14.6788 40.8471 13.5 40.0776C15.1929 37.9141 14.9158 34.8081 12.8667 32.9785L11 31.3176C10.7129 31.058 10.3329 30.9258 9.94666 30.951C9.55949 30.9719 9.19688 31.1472 8.94 31.4376C8.33702 32.1163 7.92317 32.9417 7.74 33.831C7.01953 32.1169 6.65738 30.2735 6.67583 28.4143C9.46228 28.2965 11.662 26.0057 11.6667 23.2168V20.7168C11.6657 19.9118 11.0134 19.2594 10.2083 19.2585C8.89288 19.2587 7.62676 19.7592 6.66667 20.6585V18.4251C6.66667 17.9649 6.29357 17.5918 5.83333 17.5918C5.3731 17.5918 5 17.9649 5 18.4251V20.6585C4.03991 19.7592 2.77378 19.2587 1.45833 19.2585C0.653299 19.2594 0.000918466 19.9118 0 20.7168V23.2168C0.00423628 26.014 2.21652 28.3086 5.01167 28.4151ZM6.2225 40.4501L4.51417 38.9301C5.84222 37.6086 7.96886 37.5473 9.37083 38.7901L11.0792 40.3101C9.75129 41.632 7.62432 41.6934 6.2225 40.4501ZM20.625 48.4251H18.3392C18.4515 46.5541 20.0006 45.0937 21.875 45.0918H24.1608C24.0485 46.9628 22.4994 48.4232 20.625 48.4251ZM29.375 48.4251C27.5006 48.4232 25.9515 46.9628 25.8392 45.0918H28.125C29.9994 45.0937 31.5485 46.5541 31.6608 48.4251H29.375ZM45.4858 38.9301L43.7775 40.4501C42.3757 41.6934 40.2487 41.632 38.9208 40.3101L40.6292 38.7901C42.0308 37.5465 44.1581 37.6078 45.4858 38.9301ZM48.3333 20.931V23.2168C48.331 25.091 46.8708 26.6399 45 26.7526V24.4668C45.0023 22.5926 46.4625 21.0437 48.3333 20.931ZM40 23.2168V20.931C41.8708 21.0437 43.331 22.5926 43.3333 24.4668V26.7526C41.4625 26.6399 40.0023 25.091 40 23.2168ZM38.2392 34.2235L39.9475 32.7051C41.0932 34.1629 40.9217 36.2573 39.5542 37.5093C39.5358 37.5276 39.52 37.5451 39.5017 37.5626L37.8133 39.0626C36.6545 37.5904 36.841 35.4707 38.2392 34.2235ZM29.375 40.0918H31.6608C31.5485 41.9628 29.9994 43.4232 28.125 43.4251H25.8392C25.9515 41.5541 27.5006 40.0937 29.375 40.0918ZM18.3392 40.0918H20.625C22.4994 40.0937 24.0485 41.5541 24.1608 43.4251H21.875C20.0006 43.4232 18.4515 41.9628 18.3392 40.0918ZM10.0525 32.7051L11.7608 34.2235C13.16 35.4708 13.3466 37.5918 12.1867 39.0643L10.4983 37.5643C10.48 37.5468 10.4642 37.5293 10.4458 37.5109C9.07727 36.2588 8.90576 34.1632 10.0525 32.7051ZM10 20.931V23.2168C9.99767 25.091 8.53749 26.6399 6.66667 26.7526V24.4668C6.669 22.5926 8.12918 21.0437 10 20.931ZM1.66667 20.931C3.53749 21.0437 4.99767 22.5926 5 24.4668V26.7526C3.12918 26.6399 1.669 25.091 1.66667 23.2168V20.931Z" fill="black"/>
</svg>
