<svg viewBox="0 0 32 43" fill="none" xmlns="http://www.w3.org/2000/svg">
<path d="M8.2999 42.0919H23.6999C24.8597 42.0919 25.7999 41.1517 25.7999 39.9919V35.7695C29.3563 32.8528 31.4126 28.4914 31.3999 23.8919C31.4698 19.9865 29.9468 16.2208 27.1817 13.4619L28.4074 12.2362C28.6751 12.3662 28.9687 12.4342 29.2663 12.435H29.3426C29.9529 12.4316 30.5308 12.1597 30.9225 11.6916V11.6881C31.6138 10.821 31.5354 9.57108 30.7412 8.79713L27.8299 5.88303C27.4514 5.49722 26.9353 5.27742 26.3949 5.27193H26.3172C25.7696 5.27311 25.2453 5.49343 24.8612 5.88373C24.233 6.51379 24.0688 7.47079 24.451 8.27423L22.6849 10.0403C22.0159 9.70673 21.3231 9.42316 20.6122 9.19193C19.1674 3.59193 12.7519 0.873832 10.8087 0.171032C10.297 -0.0105555 9.72656 0.117972 9.3422 0.501432L8.0269 1.79503C7.74965 2.06422 7.59525 2.43553 7.5999 2.82193C7.60387 3.21026 7.76529 3.58034 8.0472 3.84743C9.6195 5.29485 10.7452 7.16159 11.2917 9.22763C5.93074 10.9491 1.93662 15.4591 0.875799 20.9888C-0.185026 26.5185 1.85657 32.1864 6.1999 35.7695V39.9919C6.1999 40.5489 6.42115 41.083 6.81497 41.4769C7.2088 41.8707 7.74294 42.0919 8.2999 42.0919ZM25.3575 9.34803C25.6334 9.60637 26.0645 9.59907 26.3315 9.33154C26.5984 9.064 26.6048 8.63286 26.3459 8.35753L25.851 7.86263C25.5791 7.58953 25.5791 7.14804 25.851 6.87493C25.9798 6.74327 26.1569 6.67015 26.341 6.67263H26.355C26.5386 6.66494 26.7163 6.73842 26.8408 6.87353L29.7528 9.78553C30.0322 10.0461 30.0753 10.4733 29.8536 10.7844C29.7241 10.9551 29.5171 11.0488 29.3034 11.0336C29.1211 11.0411 28.9448 10.9682 28.8211 10.8341L28.3262 10.3392C28.0509 10.0803 27.6197 10.0867 27.3522 10.3537C27.0847 10.6206 27.0774 11.0518 27.3357 11.3276L24.9809 13.681C24.6296 14.0452 24.1092 14.1915 23.6197 14.0638C23.1301 13.936 22.7476 13.554 22.6191 13.0646C22.4906 12.5752 22.6362 12.0546 22.9999 11.7028L25.3575 9.34803ZM1.9999 23.8919C1.98606 17.8051 5.91683 12.4107 11.7152 10.559C12.4261 10.336 12.8405 9.59797 12.6609 8.87483C12.0296 6.54893 10.7648 4.444 9.0076 2.79463L10.3432 1.49193C12.1121 2.13243 17.983 4.60483 19.257 9.54543C19.3759 10.0147 19.7305 10.3884 20.1929 10.5317C20.7014 10.6952 21.1995 10.8892 21.6846 11.1127C20.8843 12.3052 21.1159 13.9099 22.2209 14.8273C23.3258 15.7447 24.9457 15.6774 25.9707 14.6715L26.1926 14.4496C28.6902 16.9502 30.0644 20.3583 29.9999 23.8919C30.0102 28.1813 28.0426 32.2359 24.6666 34.8819L24.6631 34.8861C23.8395 35.5359 22.9456 36.0912 21.9982 36.5416C21.7663 36.6452 21.6087 36.8663 21.5864 37.1193C21.5641 37.3723 21.6806 37.6176 21.8908 37.7601C22.101 37.9027 22.372 37.9202 22.5988 37.8058C23.2211 37.5091 23.8229 37.171 24.3999 36.7936V39.9919C24.3999 40.3785 24.0865 40.6919 23.6999 40.6919H8.2999C7.9133 40.6919 7.5999 40.3785 7.5999 39.9919V36.7943C8.1762 37.1729 8.77748 37.512 9.3996 37.8093C9.74675 37.9644 10.1542 37.814 10.3173 37.4706C10.4805 37.1272 10.3397 36.7163 10.0002 36.5451C9.05453 36.0951 8.16229 35.5405 7.3402 34.8917L7.3346 34.8854C3.95713 32.2389 1.98884 28.1828 1.9999 23.8919Z" fill="black"/>
<path d="M15.9907 36.492C16.224 36.492 16.4585 36.4857 16.6942 36.4731C20.9091 36.2404 24.7274 33.9124 26.8649 30.2721C29.0023 26.6319 29.1748 22.1632 27.3244 18.369C27.0857 17.8924 26.5981 17.5916 26.0651 17.592H5.93517C5.40174 17.5916 4.9139 17.8927 4.67517 18.3697C2.77555 22.2735 3.01827 26.8799 5.31759 30.5624C7.61692 34.2449 11.6493 36.4851 15.9907 36.492ZM5.93517 18.992H26.0714C27.713 22.3636 27.5578 26.3332 25.6579 29.5662C23.758 32.7993 20.3657 34.8666 16.6214 35.0731C12.6559 35.2972 8.8689 33.4024 6.67069 30.0944C4.47248 26.7864 4.19255 22.5611 5.93517 18.992Z" fill="black"/>
<path d="M15.2997 31.5918C16.4595 31.5918 17.3997 30.6516 17.3997 29.4918C17.3997 28.332 16.4595 27.3918 15.2997 27.3918C14.1399 27.3918 13.1997 28.332 13.1997 29.4918C13.1997 30.6516 14.1399 31.5918 15.2997 31.5918ZM15.2997 28.7918C15.6863 28.7918 15.9997 29.1052 15.9997 29.4918C15.9997 29.8784 15.6863 30.1918 15.2997 30.1918C14.9131 30.1918 14.5997 29.8784 14.5997 29.4918C14.5997 29.1052 14.9131 28.7918 15.2997 28.7918Z" fill="black"/>
<path d="M22.9999 29.4917C24.1597 29.4917 25.0999 28.5515 25.0999 27.3917C25.0999 26.2319 24.1597 25.2917 22.9999 25.2917C21.8401 25.2917 20.8999 26.2319 20.8999 27.3917C20.8999 28.5515 21.8401 29.4917 22.9999 29.4917ZM22.9999 26.6917C23.3865 26.6917 23.6999 27.0051 23.6999 27.3917C23.6999 27.7783 23.3865 28.0917 22.9999 28.0917C22.6133 28.0917 22.2999 27.7783 22.2999 27.3917C22.2999 27.0051 22.6133 26.6917 22.9999 26.6917Z" fill="black"/>
<path d="M24.3997 23.8914C24.7863 23.8914 25.0997 23.578 25.0997 23.1914C25.0997 22.8048 24.7863 22.4915 24.3997 22.4915C24.0131 22.4915 23.6997 22.8048 23.6997 23.1914C23.6997 23.578 24.0131 23.8914 24.3997 23.8914Z" fill="black"/>
<path d="M19.4998 32.2916C19.8864 32.2916 20.1998 31.9782 20.1998 31.5916C20.1998 31.205 19.8864 30.8916 19.4998 30.8916C19.1132 30.8916 18.7998 31.205 18.7998 31.5916C18.7998 31.9782 19.1132 32.2916 19.4998 32.2916Z" fill="black"/>
<path d="M9.7 30.8919C10.0866 30.8919 10.4 30.5785 10.4 30.1919C10.4 29.8053 10.0866 29.4919 9.7 29.4919C9.3134 29.4919 9 29.8053 9 30.1919C9 30.5785 9.3134 30.8919 9.7 30.8919Z" fill="black"/>
<path d="M11.7996 27.3922C12.1862 27.3922 12.4996 27.0788 12.4996 26.6922C12.4996 26.3056 12.1862 25.9922 11.7996 25.9922C11.413 25.9922 11.0996 26.3056 11.0996 26.6922C11.0996 27.0788 11.413 27.3922 11.7996 27.3922Z" fill="black"/>
<path d="M7.5999 27.3922C7.9865 27.3922 8.29991 27.0788 8.29991 26.6922C8.29991 26.3056 7.9865 25.9922 7.5999 25.9922C7.2133 25.9922 6.8999 26.3056 6.8999 26.6922C6.8999 27.0788 7.2133 27.3922 7.5999 27.3922Z" fill="black"/>
<path d="M18.0998 25.9916C19.6462 25.9916 20.8998 24.738 20.8998 23.1916C20.8998 21.6452 19.6462 20.3916 18.0998 20.3916C16.5534 20.3916 15.2998 21.6452 15.2998 23.1916C15.2998 24.738 16.5534 25.9916 18.0998 25.9916ZM18.0998 21.7916C18.873 21.7916 19.4998 22.4184 19.4998 23.1916C19.4998 23.9648 18.873 24.5916 18.0998 24.5916C17.3266 24.5916 16.6998 23.9648 16.6998 23.1916C16.6998 22.4184 17.3266 21.7916 18.0998 21.7916Z" fill="black"/>
<path d="M9.70009 24.5916C10.8599 24.5916 11.8001 23.6514 11.8001 22.4916C11.8001 21.3318 10.8599 20.3916 9.70009 20.3916C8.5403 20.3916 7.6001 21.3318 7.6001 22.4916C7.6001 23.6514 8.5403 24.5916 9.70009 24.5916ZM9.70009 21.7916C10.0867 21.7916 10.4001 22.105 10.4001 22.4916C10.4001 22.8782 10.0867 23.1916 9.70009 23.1916C9.31349 23.1916 9.00009 22.8782 9.00009 22.4916C9.00009 22.105 9.31349 21.7916 9.70009 21.7916Z" fill="black"/>
</svg>
