<svg width="76" height="76" viewBox="0 0 76 76" fill="none" xmlns="http://www.w3.org/2000/svg">
<rect width="76" height="76"/>
<g clip-path="url(#clip0_28897_2111)">
<path d="M30.3 59.0001H45.7C46.8598 59.0001 47.8 58.0599 47.8 56.9001V52.6777C51.3563 49.761 53.4126 45.3996 53.4 40.8001C53.4699 36.8947 51.9469 33.129 49.1818 30.3701L50.4075 29.1444C50.6752 29.2744 50.9688 29.3424 51.2664 29.3432H51.3427C51.953 29.3398 52.5308 29.0679 52.9226 28.5998V28.5963C53.6139 27.7292 53.5355 26.4793 52.7413 25.7053L49.83 22.7912C49.4515 22.4054 48.9354 22.1856 48.395 22.1801H48.3173C47.7697 22.1813 47.2453 22.4016 46.8613 22.7919C46.233 23.422 46.0688 24.379 46.4511 25.1824L44.685 26.9485C44.016 26.6149 43.3232 26.3314 42.6123 26.1001C41.1675 20.5001 34.752 17.782 32.8088 17.0792C32.2971 16.8976 31.7266 17.0262 31.3423 17.4096L30.027 18.7032C29.7497 18.9724 29.5953 19.3437 29.6 19.7301C29.6039 20.1185 29.7654 20.4885 30.0473 20.7556C31.6196 22.2031 32.7453 24.0698 33.2918 26.1358C27.9308 27.8573 23.9367 32.3673 22.8759 37.897C21.815 43.4267 23.8566 49.0946 28.2 52.6777V56.9001C28.2 57.4571 28.4212 57.9912 28.815 58.3851C29.2089 58.7789 29.743 59.0001 30.3 59.0001ZM47.3576 26.2562C47.6334 26.5146 48.0646 26.5073 48.3315 26.2397C48.5985 25.9722 48.6049 25.5411 48.346 25.2657L47.8511 24.7708C47.5792 24.4977 47.5792 24.0562 47.8511 23.7831C47.9798 23.6515 48.1569 23.5784 48.3411 23.5808H48.3551C48.5386 23.5731 48.7163 23.6466 48.8409 23.7817L51.7529 26.6937C52.0322 26.9543 52.0753 27.3815 51.8537 27.6926C51.7241 27.8633 51.5172 27.957 51.3035 27.9418C51.1212 27.9493 50.9449 27.8764 50.8212 27.7423L50.3263 27.2474C50.0509 26.9885 49.6198 26.9949 49.3523 27.2619C49.0847 27.5288 49.0774 27.96 49.3358 28.2358L46.981 30.5892C46.6297 30.9534 46.1093 31.0997 45.6197 30.972C45.1302 30.8442 44.7476 30.4622 44.6192 29.9728C44.4907 29.4834 44.6363 28.9628 45 28.611L47.3576 26.2562ZM24 40.8001C23.9861 34.7133 27.9169 29.3189 33.7153 27.4672C34.4262 27.2442 34.8406 26.5062 34.661 25.783C34.0297 23.4571 32.7649 21.3522 31.0077 19.7028L32.3433 18.4001C34.1122 19.0406 39.9831 21.513 41.2571 26.4536C41.376 26.9229 41.7305 27.2966 42.193 27.4399C42.7014 27.6034 43.1996 27.7974 43.6847 28.0209C42.8843 29.2134 43.116 30.8181 44.2209 31.7355C45.3258 32.6529 46.9457 32.5856 47.9708 31.5797L48.1927 31.3578C50.6902 33.8584 52.0645 37.2665 52 40.8001C52.0103 45.0895 50.0426 49.1441 46.6667 51.7901L46.6632 51.7943C45.8396 52.4441 44.9457 52.9994 43.9983 53.4498C43.7663 53.5534 43.6087 53.7745 43.5864 54.0275C43.5641 54.2806 43.6806 54.5258 43.8909 54.6684C44.1011 54.8109 44.3721 54.8284 44.5989 54.714C45.2212 54.4173 45.8229 54.0792 46.4 53.7018V56.9001C46.4 57.2867 46.0866 57.6001 45.7 57.6001H30.3C29.9134 57.6001 29.6 57.2867 29.6 56.9001V53.7025C30.1763 54.0811 30.7775 54.4202 31.3997 54.7175C31.7468 54.8726 32.1543 54.7222 32.3174 54.3788C32.4806 54.0354 32.3398 53.6245 32.0003 53.4533C31.0546 53.0033 30.1623 52.4487 29.3403 51.7999L29.3347 51.7936C25.9572 49.1471 23.9889 45.091 24 40.8001Z" fill="black"/>
<path d="M37.991 53.4005C38.2243 53.4005 38.4588 53.3942 38.6945 53.3816C42.9094 53.1488 46.7278 50.8208 48.8652 47.1806C51.0026 43.5404 51.1751 39.0717 49.3247 35.2775C49.086 34.8008 48.5984 34.5 48.0654 34.5005H27.9355C27.402 34.5001 26.9142 34.8012 26.6755 35.2782C24.7759 39.1819 25.0186 43.7884 27.3179 47.4709C29.6172 51.1533 33.6496 53.3936 37.991 53.4005ZM27.9355 35.9005H48.0717C49.7134 39.272 49.5581 43.2416 47.6582 46.4747C45.7583 49.7078 42.366 51.7751 38.6217 51.9816C34.6562 52.2056 30.8692 50.3108 28.671 47.0028C26.4728 43.6949 26.1929 39.4695 27.9355 35.9005Z" fill="black"/>
<path d="M37.2999 48.4998C38.4597 48.4998 39.3999 47.5596 39.3999 46.3998C39.3999 45.24 38.4597 44.2998 37.2999 44.2998C36.1401 44.2998 35.2 45.24 35.2 46.3998C35.2 47.5596 36.1401 48.4998 37.2999 48.4998ZM37.2999 45.6998C37.6865 45.6998 37.9999 46.0132 37.9999 46.3998C37.9999 46.7864 37.6865 47.0998 37.2999 47.0998C36.9133 47.0998 36.5999 46.7864 36.5999 46.3998C36.5999 46.0132 36.9133 45.6998 37.2999 45.6998Z" fill="black"/>
<path d="M44.9999 46.4002C46.1597 46.4002 47.0999 45.46 47.0999 44.3002C47.0999 43.1404 46.1597 42.2002 44.9999 42.2002C43.8401 42.2002 42.8999 43.1404 42.8999 44.3002C42.8999 45.46 43.8401 46.4002 44.9999 46.4002ZM44.9999 43.6002C45.3865 43.6002 45.6999 43.9136 45.6999 44.3002C45.6999 44.6868 45.3865 45.0002 44.9999 45.0002C44.6133 45.0002 44.2999 44.6868 44.2999 44.3002C44.2999 43.9136 44.6133 43.6002 44.9999 43.6002Z" fill="black"/>
<path d="M46.3999 40.7999C46.7865 40.7999 47.0999 40.4865 47.0999 40.0999C47.0999 39.7133 46.7865 39.3999 46.3999 39.3999C46.0133 39.3999 45.7 39.7133 45.7 40.0999C45.7 40.4865 46.0133 40.7999 46.3999 40.7999Z" fill="black"/>
<path d="M41.5 49.1998C41.8866 49.1998 42.2 48.8864 42.2 48.4998C42.2 48.1132 41.8866 47.7998 41.5 47.7998C41.1134 47.7998 40.8 48.1132 40.8 48.4998C40.8 48.8864 41.1134 49.1998 41.5 49.1998Z" fill="black"/>
<path d="M31.6999 47.8004C32.0865 47.8004 32.3999 47.487 32.3999 47.1004C32.3999 46.7138 32.0865 46.4004 31.6999 46.4004C31.3133 46.4004 30.9999 46.7138 30.9999 47.1004C30.9999 47.487 31.3133 47.8004 31.6999 47.8004Z" fill="black"/>
<path d="M33.7999 44.3004C34.1865 44.3004 34.4999 43.987 34.4999 43.6004C34.4999 43.2138 34.1865 42.9004 33.7999 42.9004C33.4133 42.9004 33.0999 43.2138 33.0999 43.6004C33.0999 43.987 33.4133 44.3004 33.7999 44.3004Z" fill="black"/>
<path d="M29.6 44.3004C29.9866 44.3004 30.3 43.987 30.3 43.6004C30.3 43.2138 29.9866 42.9004 29.6 42.9004C29.2134 42.9004 28.9 43.2138 28.9 43.6004C28.9 43.987 29.2134 44.3004 29.6 44.3004Z" fill="black"/>
<path d="M40.0999 42.8998C41.6463 42.8998 42.8999 41.6462 42.8999 40.0998C42.8999 38.5534 41.6463 37.2998 40.0999 37.2998C38.5535 37.2998 37.2999 38.5534 37.2999 40.0998C37.2999 41.6462 38.5535 42.8998 40.0999 42.8998ZM40.0999 38.6998C40.8731 38.6998 41.4999 39.3266 41.4999 40.0998C41.4999 40.873 40.8731 41.4998 40.0999 41.4998C39.3267 41.4998 38.6999 40.873 38.6999 40.0998C38.6999 39.3266 39.3267 38.6998 40.0999 38.6998Z" fill="black"/>
<path d="M31.7 41.4998C32.8598 41.4998 33.8 40.5596 33.8 39.3998C33.8 38.24 32.8598 37.2998 31.7 37.2998C30.5402 37.2998 29.6 38.24 29.6 39.3998C29.6 40.5596 30.5402 41.4998 31.7 41.4998ZM31.7 38.6998C32.0866 38.6998 32.4 39.0132 32.4 39.3998C32.4 39.7864 32.0866 40.0998 31.7 40.0998C31.3134 40.0998 31 39.7864 31 39.3998C31 39.0132 31.3134 38.6998 31.7 38.6998Z" fill="black"/>
</g>
<defs>
<clipPath id="clip0_28897_2111">
<rect width="42" height="42" fill="black" transform="translate(17 17)"/>
</clipPath>
</defs>
</svg>
