<svg width="76" height="76" viewBox="0 0 76 76" fill="none" xmlns="http://www.w3.org/2000/svg">
<rect width="76" height="76"/>
<g clip-path="url(#clip0_28897_2109)">
<path d="M38 17C32.8577 16.9956 27.8934 18.8832 24.0532 22.3032C23.6633 22.6496 23.5867 23.2297 23.8734 23.6654C24.1602 24.1011 24.7232 24.2603 25.1956 24.0392C27.231 23.0855 29.4523 22.5941 31.7 22.6C38.0079 22.6021 43.6767 26.4507 46.0063 32.3126C48.3358 38.1746 46.8551 44.8645 42.2693 49.1957C37.6835 53.527 30.92 54.6237 25.2005 51.9636C24.7272 51.7407 24.162 51.9003 23.8752 52.3377C23.5883 52.7752 23.6672 53.3571 24.0602 53.7024C27.8967 57.1233 32.8599 59.0095 38 59C38.2429 59 38.49 58.9958 38.7315 58.9867C49.4912 58.5446 58.2003 50.0875 58.958 39.3454C59.35 33.5454 57.3017 27.8452 53.3076 23.6213C49.332 19.4042 43.7957 17.0094 38 17ZM57.5608 39.26C57.1063 46.3254 52.8768 52.5964 46.4964 55.6651C40.116 58.7337 32.5766 58.1229 26.7734 54.0671C28.4823 54.5895 30.2634 54.8369 32.05 54.8C38.6003 54.6519 44.4669 50.7093 47.0783 44.7002C49.6897 38.6911 48.5694 31.7122 44.2084 26.8223C39.8475 21.9325 33.0416 20.0241 26.7741 21.9336C32.9486 17.6187 41.0497 17.2241 47.6143 20.9186C54.1789 24.6131 58.0453 31.7428 57.5608 39.26Z" fill="black"/>
<path d="M18.0017 37.3647C17.7102 37.7388 17.7102 38.2632 18.0017 38.6373C18.9075 39.8203 23.72 45.7003 29.6 45.7003C35.48 45.7003 40.2925 39.8203 41.1983 38.6359C41.4896 38.2622 41.4896 37.7384 41.1983 37.3647C40.2925 36.1838 35.48 30.3003 29.6 30.3003C23.72 30.3003 18.9075 36.1838 18.0017 37.3647ZM39.5554 38.4413C38.0406 40.2403 34.1206 44.3003 29.6 44.3003C25.0794 44.3003 21.1587 40.2403 19.6446 38.4413C20.9455 37.0866 22.5458 36.0557 24.3171 35.4313C23.5028 37.75 24.2954 40.3287 26.2715 41.7897C28.2475 43.2507 30.9453 43.2527 32.9235 41.7946C34.9017 40.3364 35.698 37.7589 34.8871 35.439C36.6535 36.0671 38.2511 37.0946 39.5554 38.4413ZM25.4 37.3003C25.3972 36.4262 25.676 35.5745 26.1952 34.8713C28.4391 34.3752 30.7644 34.3767 33.0076 34.8755C33.5249 35.5779 33.8027 36.428 33.8 37.3003C33.8 39.6199 31.9196 41.5003 29.6 41.5003C27.2804 41.5003 25.4 39.6199 25.4 37.3003ZM29.6 31.7003C32.2516 31.7003 34.6939 33.1003 36.5706 34.6221C34.3906 33.5984 32.0083 33.0783 29.6 33.1003C27.1917 33.0783 24.8094 33.5984 22.6294 34.6221C24.5061 33.1003 26.9484 31.7003 29.6 31.7003Z" fill="black"/>
<path d="M30.3 28.2002V25.4002C30.3 25.0136 29.9866 24.7002 29.6 24.7002C29.2134 24.7002 28.9 25.0136 28.9 25.4002V28.2002C28.9 28.5868 29.2134 28.9002 29.6 28.9002C29.9866 28.9002 30.3 28.5868 30.3 28.2002Z" fill="black"/>
<path d="M25.4 29.6001C25.625 29.6002 25.8363 29.4921 25.9679 29.3096C26.0996 29.1271 26.1354 28.8924 26.0643 28.6789L25.3643 26.5789C25.2421 26.2117 24.8454 26.013 24.4781 26.1351C24.1108 26.2573 23.9121 26.6541 24.0343 27.0213L24.7343 29.1213C24.8297 29.4078 25.0981 29.6008 25.4 29.6001Z" fill="black"/>
<path d="M20.9949 29.1052C20.7203 28.8399 20.2837 28.8437 20.0136 29.1137C19.7436 29.3837 19.7398 29.8203 20.0051 30.095L21.4051 31.495C21.5809 31.677 21.8411 31.7499 22.0859 31.6859C22.3306 31.6218 22.5217 31.4307 22.5858 31.1859C22.6499 30.9412 22.5769 30.6809 22.3949 30.5052L20.9949 29.1052Z" fill="black"/>
<path d="M17.9051 34.2946C18.0809 34.4766 18.3411 34.5496 18.5859 34.4855C18.8306 34.4215 19.0217 34.2303 19.0858 33.9856C19.1499 33.7408 19.0769 33.4806 18.8949 33.3048L18.1949 32.6048C18.0192 32.4229 17.7589 32.3499 17.5142 32.4139C17.2694 32.478 17.0783 32.6691 17.0142 32.9139C16.9502 33.1586 17.0231 33.4189 17.2051 33.5946L17.9051 34.2946Z" fill="black"/>
<path d="M33.8 29.6001C34.1014 29.6002 34.3691 29.4073 34.4643 29.1213L35.1643 27.0213C35.2865 26.6541 35.0878 26.2573 34.7205 26.1351C34.3533 26.013 33.9565 26.2117 33.8343 26.5789L33.1343 28.6789C33.0631 28.8927 33.0992 29.1276 33.2311 29.3101C33.363 29.4927 33.5748 29.6006 33.8 29.6001Z" fill="black"/>
<path d="M37.7949 31.495L39.1949 30.095C39.4602 29.8203 39.4564 29.3837 39.1864 29.1137C38.9164 28.8437 38.4798 28.8399 38.2051 29.1052L36.8051 30.5052C36.6231 30.6809 36.5502 30.9412 36.6142 31.1859C36.6783 31.4307 36.8694 31.6218 37.1142 31.6859C37.3589 31.7499 37.6192 31.677 37.7949 31.495Z" fill="black"/>
<path d="M41.9949 32.6049C41.7216 32.3316 41.2785 32.3316 41.0051 32.6049L40.3051 33.3049C40.1231 33.4806 40.0502 33.7409 40.1142 33.9856C40.1783 34.2304 40.3694 34.4215 40.6142 34.4855C40.8589 34.5496 41.1192 34.4766 41.2949 34.2947L41.9949 33.5947C42.2682 33.3213 42.2682 32.8782 41.9949 32.6049Z" fill="black"/>
<path d="M28.9 47.8001V50.6001C28.9 50.9867 29.2134 51.3001 29.6 51.3001C29.9866 51.3001 30.3 50.9867 30.3 50.6001V47.8001C30.3 47.4135 29.9866 47.1001 29.6 47.1001C29.2134 47.1001 28.9 47.4135 28.9 47.8001Z" fill="black"/>
<path d="M24.7357 46.8791L24.0357 48.9791C23.9135 49.3463 24.1122 49.7431 24.4795 49.8653C24.8468 49.9874 25.2435 49.7887 25.3657 49.4215L26.0657 47.3215C26.1447 47.0839 26.091 46.8222 25.9248 46.6349C25.7585 46.4477 25.505 46.3634 25.2598 46.4137C25.0145 46.4641 24.8147 46.6415 24.7357 46.8791Z" fill="black"/>
<path d="M21.4051 44.5051L20.0051 45.9051C19.8232 46.0808 19.7502 46.3411 19.8142 46.5858C19.8783 46.8306 20.0694 47.0217 20.3142 47.0858C20.5589 47.1498 20.8192 47.0769 20.9949 46.8949L22.3949 45.4949C22.6602 45.2202 22.6564 44.7836 22.3864 44.5136C22.1164 44.2436 21.6798 44.2398 21.4051 44.5051Z" fill="black"/>
<path d="M17.9051 41.7053L17.2051 42.4053C17.0231 42.581 16.9502 42.8413 17.0142 43.086C17.0783 43.3308 17.2694 43.5219 17.5142 43.586C17.7589 43.65 18.0192 43.5771 18.1949 43.3951L18.8949 42.6951C19.1602 42.4204 19.1564 41.9838 18.8864 41.7138C18.6164 41.4438 18.1798 41.44 17.9051 41.7053Z" fill="black"/>
<path d="M33.5788 46.4363C33.2122 46.5584 33.0139 46.9544 33.1357 47.3211L33.8357 49.4211C33.9579 49.7884 34.3546 49.9871 34.7219 49.8649C35.0892 49.7427 35.2879 49.346 35.1657 48.9787L34.4657 46.8787C34.4069 46.7023 34.2804 46.5565 34.114 46.4735C33.9476 46.3905 33.7551 46.3771 33.5788 46.4363Z" fill="black"/>
<path d="M37.7949 44.5051C37.5202 44.2398 37.0837 44.2436 36.8136 44.5136C36.5436 44.7836 36.5398 45.2202 36.8051 45.4949L38.2051 46.8949C38.4798 47.1602 38.9164 47.1564 39.1864 46.8864C39.4564 46.6164 39.4602 46.1798 39.1949 45.9051L37.7949 44.5051Z" fill="black"/>
<path d="M41.2949 41.7053C41.0202 41.44 40.5836 41.4438 40.3136 41.7138C40.0436 41.9838 40.0398 42.4204 40.3051 42.6951L41.0051 43.3951C41.2798 43.6604 41.7164 43.6566 41.9864 43.3866C42.2564 43.1165 42.2602 42.6799 41.9949 42.4053L41.2949 41.7053Z" fill="black"/>
<path d="M29.6 40.0999C30.7598 40.0999 31.7 39.1597 31.7 37.9999C31.7 36.8401 30.7598 35.8999 29.6 35.8999C28.4402 35.8999 27.5 36.8401 27.5 37.9999C27.5 39.1597 28.4402 40.0999 29.6 40.0999ZM29.6 37.2999C29.9866 37.2999 30.3 37.6133 30.3 37.9999C30.3 38.3865 29.9866 38.6999 29.6 38.6999C29.2134 38.6999 28.9 38.3865 28.9 37.9999C28.9 37.6133 29.2134 37.2999 29.6 37.2999Z" fill="black"/>
</g>
<defs>
<clipPath id="clip0_28897_2109">
<rect width="42" height="42" fill="black" transform="translate(17 17)"/>
</clipPath>
</defs>
</svg>
