<svg viewBox="0 0 42 43" fill="none" xmlns="http://www.w3.org/2000/svg">
<path d="M20.9997 0.0920488C15.8573 0.0876103 10.8931 1.97524 7.05288 5.39525C6.66295 5.74164 6.5864 6.32174 6.87311 6.75743C7.15982 7.19312 7.72288 7.35232 8.19528 7.13125C10.2307 6.17758 12.4519 5.6861 14.6997 5.69205C21.0075 5.69412 26.6764 9.54273 29.0059 15.4047C31.3355 21.2666 29.8547 27.9565 25.2689 32.2878C20.6832 36.619 13.9197 37.7158 8.20018 35.0557C7.72688 34.8328 7.16171 34.9923 6.87482 35.4298C6.58792 35.8673 6.66684 36.4492 7.05988 36.7945C10.8963 40.2154 15.8595 42.1016 20.9997 42.0921C21.2426 42.0921 21.4897 42.0879 21.7312 42.0788C32.4909 41.6367 41.2 33.1796 41.9577 22.4375C42.3497 16.6374 40.3014 10.9372 36.3073 6.71335C32.3316 2.4962 26.7954 0.101491 20.9997 0.0920488ZM40.5605 22.3521C40.106 29.4174 35.8764 35.6885 29.496 38.7571C23.1156 41.8257 15.5763 41.2149 9.77308 37.1591C11.482 37.6815 13.2631 37.9289 15.0497 37.8921C21.6 37.744 27.4665 33.8013 30.0779 27.7923C32.6893 21.7832 31.569 14.8042 27.2081 9.91438C22.8471 5.02455 16.0413 3.11614 9.77378 5.02565C15.9483 0.710703 24.0493 0.316136 30.6139 4.01062C37.1785 7.7051 41.045 14.8348 40.5605 22.3521Z" fill="black"/>
<path d="M1.00133 20.4565C0.709842 20.8306 0.709842 21.355 1.00133 21.7291C1.90713 22.9121 6.71963 28.7921 12.5996 28.7921C18.4796 28.7921 23.2921 22.9121 24.1979 21.7277C24.4892 21.354 24.4892 20.8302 24.1979 20.4565C23.2921 19.2756 18.4796 13.3921 12.5996 13.3921C6.71963 13.3921 1.90713 19.2756 1.00133 20.4565ZM22.555 21.5331C21.0402 23.3321 17.1202 27.3921 12.5996 27.3921C8.07903 27.3921 4.15833 23.3321 2.64423 21.5331C3.9451 20.1784 5.5454 19.1475 7.31673 18.5231C6.50244 20.8418 7.29504 23.4205 9.2711 24.8815C11.2472 26.3425 13.9449 26.3445 15.9231 24.8864C17.9013 23.4282 18.6976 20.8507 17.8867 18.5308C19.6532 19.1589 21.2507 20.1864 22.555 21.5331ZM8.39963 20.3921C8.39679 19.518 8.67563 18.6663 9.19483 17.9631C11.4387 17.467 13.764 17.4685 16.0072 17.9673C16.5245 18.6697 16.8023 19.5198 16.7996 20.3921C16.7996 22.7117 14.9192 24.5921 12.5996 24.5921C10.28 24.5921 8.39963 22.7117 8.39963 20.3921ZM12.5996 14.7921C15.2512 14.7921 17.6935 16.1921 19.5702 17.7139C17.3902 16.6902 15.0079 16.1701 12.5996 16.1921C10.1914 16.1701 7.80902 16.6902 5.62903 17.7139C7.50573 16.1921 9.94803 14.7921 12.5996 14.7921Z" fill="black"/>
<path d="M13.2999 11.292V8.49199C13.2999 8.10539 12.9865 7.79199 12.5999 7.79199C12.2133 7.79199 11.8999 8.10539 11.8999 8.49199V11.292C11.8999 11.6786 12.2133 11.992 12.5999 11.992C12.9865 11.992 13.2999 11.6786 13.2999 11.292Z" fill="black"/>
<path d="M8.39976 12.6922C8.62477 12.6922 8.83609 12.5841 8.9677 12.4016C9.09931 12.2191 9.13517 11.9845 9.06406 11.771L8.36406 9.67098C8.2419 9.30371 7.84513 9.10501 7.47786 9.22718C7.11059 9.34934 6.9119 9.74611 7.03406 10.1134L7.73406 12.2134C7.82947 12.4998 8.09782 12.6929 8.39976 12.6922Z" fill="black"/>
<path d="M3.99489 12.1972C3.72023 11.932 3.28363 11.9357 3.01362 12.2058C2.74361 12.4758 2.73981 12.9124 3.00509 13.187L4.40509 14.587C4.58084 14.769 4.84111 14.842 5.08585 14.7779C5.33059 14.7139 5.52172 14.5227 5.58578 14.278C5.64984 14.0332 5.57686 13.773 5.39489 13.5972L3.99489 12.1972Z" fill="black"/>
<path d="M0.90493 17.3869C1.08068 17.5689 1.34094 17.6419 1.58569 17.5778C1.83043 17.5137 2.02156 17.3226 2.08562 17.0779C2.14968 16.8331 2.0767 16.5729 1.89473 16.3971L1.19473 15.6971C1.01898 15.5151 0.758716 15.4422 0.513975 15.5062C0.269234 15.5703 0.0781028 15.7614 0.014042 16.0062C-0.0500188 16.2509 0.0229604 16.5112 0.20493 16.6869L0.90493 17.3869Z" fill="black"/>
<path d="M16.7997 12.6922C17.1011 12.6923 17.3688 12.4994 17.464 12.2134L18.164 10.1134C18.2862 9.74611 18.0875 9.34934 17.7202 9.22718C17.353 9.10501 16.9562 9.30371 16.834 9.67098L16.134 11.771C16.0628 11.9847 16.0989 12.2196 16.2308 12.4022C16.3627 12.5848 16.5745 12.6927 16.7997 12.6922Z" fill="black"/>
<path d="M20.7948 14.587L22.1948 13.187C22.4601 12.9124 22.4563 12.4758 22.1863 12.2058C21.9163 11.9357 21.4797 11.932 21.205 12.1972L19.805 13.5972C19.6231 13.773 19.5501 14.0332 19.6141 14.278C19.6782 14.5227 19.8693 14.7139 20.1141 14.7779C20.3588 14.842 20.6191 14.769 20.7948 14.587Z" fill="black"/>
<path d="M24.9948 15.6971C24.7215 15.4239 24.2784 15.4239 24.005 15.6971L23.305 16.3971C23.1231 16.5729 23.0501 16.8332 23.1141 17.0779C23.1782 17.3226 23.3693 17.5138 23.6141 17.5778C23.8588 17.6419 24.1191 17.5689 24.2948 17.3869L24.9948 16.6869C25.2681 16.4136 25.2681 15.9705 24.9948 15.6971Z" fill="black"/>
<path d="M11.8999 30.8919V33.6919C11.8999 34.0785 12.2133 34.3919 12.5999 34.3919C12.9865 34.3919 13.2999 34.0785 13.2999 33.6919V30.8919C13.2999 30.5053 12.9865 30.1919 12.5999 30.1919C12.2133 30.1919 11.8999 30.5053 11.8999 30.8919Z" fill="black"/>
<path d="M7.73553 29.9711L7.03553 32.0711C6.91336 32.4384 7.11206 32.8351 7.47933 32.9573C7.8466 33.0795 8.24336 32.8808 8.36553 32.5135L9.06553 30.4135C9.14455 30.1759 9.09083 29.9142 8.92459 29.727C8.75835 29.5398 8.50486 29.4554 8.25959 29.5058C8.01433 29.5561 7.81455 29.7335 7.73553 29.9711Z" fill="black"/>
<path d="M4.40474 27.5974L3.00473 28.9974C2.82277 29.1731 2.74979 29.4334 2.81385 29.6781C2.87791 29.9229 3.06904 30.114 3.31378 30.1781C3.55852 30.2421 3.81878 30.1691 3.99453 29.9872L5.39454 28.5872C5.65982 28.3125 5.65602 27.8759 5.38601 27.6059C5.11599 27.3359 4.6794 27.3321 4.40474 27.5974Z" fill="black"/>
<path d="M0.90493 24.7973L0.20493 25.4973C0.0229604 25.6731 -0.0500188 25.9333 0.014042 26.1781C0.0781028 26.4228 0.269234 26.614 0.513975 26.678C0.758716 26.7421 1.01898 26.6691 1.19473 26.4871L1.89473 25.7871C2.16001 25.5125 2.15622 25.0759 1.8862 24.8059C1.61619 24.5358 1.1796 24.532 0.90493 24.7973Z" fill="black"/>
<path d="M16.5786 29.5283C16.212 29.6504 16.0137 30.0465 16.1355 30.4131L16.8355 32.5131C16.9577 32.8804 17.3544 33.0791 17.7217 32.9569C18.089 32.8348 18.2877 32.438 18.1655 32.0707L17.4655 29.9707C17.4067 29.7943 17.2802 29.6485 17.1138 29.5655C16.9474 29.4826 16.7549 29.4692 16.5786 29.5283Z" fill="black"/>
<path d="M20.7947 27.5974C20.52 27.3321 20.0834 27.3359 19.8134 27.6059C19.5434 27.8759 19.5396 28.3125 19.8049 28.5872L21.2049 29.9872C21.4796 30.2525 21.9162 30.2487 22.1862 29.9787C22.4562 29.7086 22.46 29.272 22.1947 28.9974L20.7947 27.5974Z" fill="black"/>
<path d="M24.2947 24.7973C24.02 24.532 23.5834 24.5358 23.3134 24.8059C23.0434 25.0759 23.0396 25.5125 23.3049 25.7871L24.0049 26.4871C24.2796 26.7524 24.7162 26.7486 24.9862 26.4786C25.2562 26.2086 25.26 25.772 24.9947 25.4973L24.2947 24.7973Z" fill="black"/>
<path d="M12.6 23.1922C13.7598 23.1922 14.7 22.252 14.7 21.0922C14.7 19.9324 13.7598 18.9922 12.6 18.9922C11.4402 18.9922 10.5 19.9324 10.5 21.0922C10.5 22.252 11.4402 23.1922 12.6 23.1922ZM12.6 20.3922C12.9866 20.3922 13.3 20.7056 13.3 21.0922C13.3 21.4788 12.9866 21.7922 12.6 21.7922C12.2134 21.7922 11.9 21.4788 11.9 21.0922C11.9 20.7056 12.2134 20.3922 12.6 20.3922Z" fill="black"/>
</svg>
